# This file uses centimeters as units for non-parametric coordinates.

mtllib piso1.mtl
g default
v -4.581110 -0.280763 5.584561
v 4.581110 -0.280763 5.584561
v -4.581110 0.280763 5.584561
v 4.581110 0.280763 5.584561
v -4.581110 0.280763 -5.584561
v 4.581110 0.280763 -5.584561
v -4.581110 -0.280763 -5.584561
v 4.581110 -0.280763 -5.584561
vt 0.001992 0.001992
vt 0.998008 0.001992
vt 0.998008 0.998008
vt 0.001992 0.998008
vt -5.008513 -5.008518
vt 6.008512 -5.008518
vt 6.008512 6.008518
vt -5.008513 6.008518
vt 0.001992 0.998008
vt 0.001992 0.001992
vt 0.998008 0.001992
vt 0.998008 0.998008
vt 0.001992 0.001992
vt 0.998008 0.001992
vt 0.998008 0.998008
vt 0.001992 0.998008
vt 0.001992 0.998008
vt 0.001992 0.001992
vt 0.998007 0.001992
vt 0.998007 0.998008
vt 0.001992 0.001992
vt 0.998008 0.001992
vt 0.998008 0.998008
vt 0.001992 0.998008
vn 0.000000 0.000000 1.000000
vn 0.000000 0.000000 1.000000
vn 0.000000 0.000000 1.000000
vn 0.000000 0.000000 1.000000
vn 0.000000 1.000000 0.000000
vn 0.000000 1.000000 0.000000
vn 0.000000 1.000000 0.000000
vn 0.000000 1.000000 0.000000
vn 0.000000 0.000000 -1.000000
vn 0.000000 0.000000 -1.000000
vn 0.000000 0.000000 -1.000000
vn 0.000000 0.000000 -1.000000
vn 0.000000 -1.000000 0.000000
vn 0.000000 -1.000000 0.000000
vn 0.000000 -1.000000 0.000000
vn 0.000000 -1.000000 0.000000
vn 1.000000 0.000000 0.000000
vn 1.000000 0.000000 0.000000
vn 1.000000 0.000000 0.000000
vn 1.000000 0.000000 0.000000
vn -1.000000 0.000000 0.000000
vn -1.000000 0.000000 0.000000
vn -1.000000 0.000000 0.000000
vn -1.000000 0.000000 0.000000
s off
g piso1:pCube1
usemtl piso1:phong4SG
f 1/1/1 2/2/2 4/3/3 3/4/4
usemtl piso1:FrontColor
f 3/5/5 4/6/6 6/7/7 5/8/8
usemtl piso1:phong4SG
f 5/9/9 6/10/10 8/11/11 7/12/12
f 7/13/13 8/14/14 2/15/15 1/16/16
f 2/17/17 8/18/18 6/19/19 4/20/20
f 7/21/21 1/22/22 3/23/23 5/24/24
