# This file uses centimeters as units for non-parametric coordinates.

mtllib C.mtl
g default
v 0.515791 2.592416 0.531409
v -0.515791 2.592416 0.531409
v -0.515791 -0.292416 0.531409
v -0.515791 -0.192416 0.531409
v -0.515791 -2.092416 0.531409
v -0.515791 -2.342416 0.531409
v -0.515791 -2.592416 0.531409
v 0.515791 -2.592416 0.531409
v -0.515791 -2.592416 -0.531409
v 0.515791 -2.592416 -0.531409
v -0.515791 -2.342416 -0.531409
v -0.515791 -2.092416 -0.531409
v -0.515791 -0.292416 -0.531409
v -0.515791 -0.192416 -0.531409
v -0.515791 2.592416 -0.531409
v 0.515791 2.592416 -0.531409
vt -1.311747 3.174680
vt -2.388626 3.174680
vt -2.388626 2.913702
vt -2.388626 2.652724
vt -2.388626 0.773687
vt -2.388626 0.669296
vt -2.388626 -2.237816
vt -1.311747 -2.237816
vt 3.233843 -1.128330
vt 2.156964 -1.128330
vt 2.156964 -2.237816
vt 3.233843 -2.237816
vt -1.268338 -1.976839
vt -1.268338 -2.237816
vt -0.158852 -2.237816
vt -0.158852 -1.976839
vt -0.158852 -1.715862
vt -0.158852 0.163176
vt -0.158852 0.267567
vt -0.158852 3.174679
vt -1.268338 3.174679
vt -1.268338 0.267567
vt -1.268338 0.163176
vt -1.268338 -1.715862
vt 2.311746 -1.105179
vt 3.388626 -1.105179
vt 3.388626 0.004307
vt 2.311746 0.004307
vt -0.115266 3.174679
vt -0.115266 -2.237816
vt 0.994220 -2.237816
vt 0.994220 3.174679
vt 2.114685 -2.237816
vt 2.114685 3.174679
vt 1.037806 3.174679
vt 1.037806 0.267567
vt 1.037806 0.163176
vt 1.037806 -1.715862
vt 1.037806 -1.976839
vt 1.037806 -2.237816
vn -0.000000 0.000000 -1.000000
vn -0.000000 0.000000 -1.000000
vn -0.000000 0.000000 -1.000000
vn -0.000000 0.000000 -1.000000
vn -0.000000 0.000000 -1.000000
vn -0.000000 0.000000 -1.000000
vn -0.000000 0.000000 -1.000000
vn -0.000000 0.000000 -1.000000
vn 0.000000 -1.000000 0.000000
vn 0.000000 -1.000000 0.000000
vn 0.000000 -1.000000 0.000000
vn 0.000000 -1.000000 0.000000
vn -1.000000 0.000000 0.000000
vn -1.000000 0.000000 0.000000
vn -1.000000 0.000000 0.000000
vn -1.000000 0.000000 0.000000
vn -1.000000 0.000000 0.000000
vn -1.000000 0.000000 0.000000
vn -1.000000 0.000000 0.000000
vn -1.000000 0.000000 0.000000
vn -1.000000 0.000000 0.000000
vn -1.000000 0.000000 0.000000
vn -1.000000 0.000000 0.000000
vn -1.000000 0.000000 0.000000
vn 0.000000 1.000000 0.000000
vn 0.000000 1.000000 0.000000
vn 0.000000 1.000000 0.000000
vn 0.000000 1.000000 0.000000
vn 1.000000 0.000000 0.000000
vn 1.000000 0.000000 0.000000
vn 1.000000 0.000000 0.000000
vn 1.000000 0.000000 0.000000
vn 0.000000 0.000000 1.000000
vn 0.000000 0.000000 1.000000
vn 0.000000 0.000000 1.000000
vn 0.000000 0.000000 1.000000
vn 0.000000 0.000000 1.000000
vn 0.000000 0.000000 1.000000
vn 0.000000 0.000000 1.000000
vn 0.000000 0.000000 1.000000
s off
g C:castillo
usemtl C:FrontColor
f 10/1/1 9/2/2 11/3/3 12/4/4 13/5/5 14/6/6 15/7/7 16/8/8
f 8/9/9 7/10/10 9/11/11 10/12/12
f 11/13/13 9/14/14 7/15/15 6/16/16 5/17/17 3/18/18 4/19/19 2/20/20 15/21/21 14/22/22 13/23/23 12/24/24
f 2/25/25 1/26/26 16/27/27 15/28/28
f 1/29/29 8/30/30 10/31/31 16/32/32
f 8/33/33 1/34/34 2/35/35 4/36/36 3/37/37 5/38/38 6/39/39 7/40/40
