# This file uses centimeters as units for non-parametric coordinates.

mtllib archiveroG.mtl
g default
v 0.297744 0.630290 0.223545
v -0.013406 0.630290 0.223545
v -0.013406 0.662040 0.210845
v 0.297744 0.662040 0.210845
vt 2.750000 22.956499
vt 2.750000 24.302799
vt 15.000000 22.956499
vt 15.000000 24.302799
vn 0.000000 0.371389 0.928477
vn 0.000000 0.371389 0.928477
vn 0.000000 0.371389 0.928477
vn -0.000000 0.371391 0.928477
vn -0.000000 0.371391 0.928477
vn -0.000000 0.371391 0.928477
s off
g archivero:MeshpolySurface4
usemtl phong2SG
f 1/1/1 4/2/2 2/3/3
f 2/3/4 4/2/5 3/4/6
g default
v 0.297744 0.331840 0.223545
v -0.013406 0.331840 0.223545
v -0.013406 0.363590 0.210845
v 0.297744 0.363590 0.210845
vt 2.750000 12.046900
vt 2.750000 13.393100
vt 15.000000 12.046900
vt 15.000000 13.393100
vn -0.000000 0.371390 0.928477
vn -0.000000 0.371390 0.928477
vn -0.000000 0.371390 0.928477
vn -0.000000 0.371391 0.928477
vn -0.000000 0.371391 0.928477
vn -0.000000 0.371391 0.928477
s off
g archivero:Mesh
usemtl phong2SG
f 5/5/7 8/6/8 6/7/9
f 6/7/10 8/6/11 7/8/12
g default
v 0.367594 1.023358 -0.220955
v 0.367594 1.023358 0.236245
v 0.367594 0.007358 0.236245
v 0.367594 0.007358 -0.220955
v -0.013406 1.023358 -0.220955
v -0.013406 1.023358 0.236245
v -0.013406 0.007358 -0.220955
v 0.342194 0.007358 0.236245
v 0.342194 0.007358 0.210845
v -0.013406 0.007358 0.210845
v -0.013406 0.985258 0.236245
v 0.342194 0.985258 0.236245
v -0.013406 0.985258 0.223545
v 0.342194 0.985258 0.223545
v 0.342194 0.680458 0.223545
v -0.013406 0.966840 0.223545
v 0.297744 0.966840 0.223545
v -0.013406 0.680458 0.223545
v 0.342194 0.382008 0.223545
v 0.342194 0.083558 0.223545
v 0.342194 0.083558 0.210845
v -0.013406 0.662040 0.223545
v 0.297744 0.662040 0.223545
v -0.013406 0.382008 0.223545
v -0.013406 0.363590 0.223545
v 0.297744 0.363590 0.223545
v -0.013406 0.083558 0.223545
v -0.013406 0.083558 0.210845
v 0.297744 0.935090 0.223545
v 0.297744 0.966840 0.210845
v -0.013406 0.966840 0.210845
v -0.013406 0.935090 0.223545
v 0.297744 0.630290 0.223545
v 0.297744 0.662040 0.210845
v -0.013406 0.662040 0.210845
v -0.013406 0.630290 0.223545
v 0.297744 0.331840 0.223545
v 0.297744 0.363590 0.210845
v -0.013406 0.363590 0.210845
v -0.013406 0.331840 0.223545
vt -18.000000 40.000000
vt 0.000000 40.000000
vt -18.000000 0.000000
vt 0.000000 0.000000
vt 0.000000 18.000000
vt 15.000000 18.000000
vt 0.000000 0.000000
vt 15.000000 0.000000
vt 0.000000 0.000000
vt -15.000000 0.000000
vt 0.000000 40.000000
vt -15.000000 40.000000
vt -1.000000 0.000000
vt 0.000000 18.000000
vt -1.000000 1.000000
vt -15.000000 18.000000
vt -15.000000 1.000000
vt 1.000000 0.000000
vt 1.000000 38.500000
vt 15.000000 40.000000
vt 15.000000 38.500000
vt -1.000000 0.000000
vt -15.000000 0.000000
vt -1.000000 0.500000
vt -15.000000 0.500000
vt 15.000000 38.500000
vt 15.000000 37.774899
vt 1.000000 38.500000
vt 2.750000 37.774899
vt 1.000000 26.500000
vt 2.750000 36.524899
vt 15.000000 26.500000
vt 2.750000 36.524899
vt 15.000000 36.524899
vt 0.500000 38.500000
vt 0.500000 26.500000
vt 0.000000 38.500000
vt 0.000000 0.000000
vt 0.500000 14.750000
vt 0.500000 3.000000
vt 1.000000 0.000000
vt 1.000000 3.000000
vt 15.000000 25.774900
vt 2.750000 25.774900
vt 1.000000 14.750000
vt 2.750000 24.524900
vt 15.000000 14.750000
vt 2.750000 24.524900
vt 15.000000 24.524900
vt -15.000000 1.000000
vt -2.750000 1.000000
vt -15.000000 0.500000
vt -2.750000 1.000000
vt -2.750000 0.500000
vt 1.000000 25.774900
vt 0.500000 24.524900
vt 0.500000 25.774900
vt 15.000000 14.024900
vt 2.750000 14.024900
vt 1.000000 3.000000
vt 2.750000 12.774900
vt 15.000000 3.000000
vt 2.750000 12.774900
vt 15.000000 12.774900
vt -15.000000 1.000000
vt -2.750000 1.000000
vt -15.000000 0.500000
vt -2.750000 1.000000
vt -2.750000 0.500000
vt 1.000000 14.024900
vt 0.500000 12.774900
vt 0.500000 14.024900
vt -1.000000 0.500000
vt -15.000000 0.500000
vt -1.000000 1.000000
vt -15.000000 1.000000
vt 15.000000 3.000000
vt 1.000000 0.000000
vt 15.000000 0.000000
vt -15.000000 1.000000
vt -2.750000 1.000000
vt -15.000000 0.500000
vt -2.750000 1.000000
vt -2.750000 0.500000
vt 1.000000 37.774899
vt 0.500000 36.524899
vt 0.500000 37.774899
vn 1.000000 0.000000 0.000000
vn 1.000000 0.000000 0.000000
vn 1.000000 0.000000 0.000000
vn 1.000000 0.000000 0.000000
vn 1.000000 0.000000 0.000000
vn 1.000000 0.000000 0.000000
vn 0.000000 1.000000 0.000000
vn 0.000000 1.000000 0.000000
vn 0.000000 1.000000 0.000000
vn 0.000000 1.000000 0.000000
vn 0.000000 1.000000 0.000000
vn 0.000000 1.000000 0.000000
vn 0.000000 0.000000 -1.000000
vn 0.000000 0.000000 -1.000000
vn 0.000000 0.000000 -1.000000
vn 0.000000 0.000000 -1.000000
vn 0.000000 0.000000 -1.000000
vn 0.000000 0.000000 -1.000000
vn 0.000000 -1.000000 0.000000
vn 0.000000 -1.000000 0.000000
vn 0.000000 -1.000000 0.000000
vn -0.000001 -1.000000 -0.000000
vn -0.000001 -1.000000 -0.000000
vn -0.000001 -1.000000 -0.000000
vn 0.000000 -1.000000 0.000000
vn 0.000000 -1.000000 0.000000
vn 0.000000 -1.000000 0.000000
vn 0.000000 -1.000000 0.000000
vn 0.000000 -1.000000 0.000000
vn 0.000000 -1.000000 0.000000
vn -0.000000 0.000000 1.000000
vn -0.000000 0.000000 1.000000
vn -0.000000 0.000000 1.000000
vn -0.000000 0.000000 1.000000
vn -0.000000 0.000000 1.000000
vn -0.000000 0.000000 1.000000
vn -0.000000 0.000000 1.000000
vn -0.000000 0.000000 1.000000
vn -0.000000 0.000000 1.000000
vn -0.000000 0.000000 1.000000
vn -0.000000 0.000000 1.000000
vn -0.000000 0.000000 1.000000
vn 0.000000 -1.000000 0.000000
vn 0.000000 -1.000000 0.000000
vn 0.000000 -1.000000 0.000000
vn 0.000000 -1.000000 0.000000
vn 0.000000 -1.000000 0.000000
vn 0.000000 -1.000000 0.000000
vn -0.000000 0.000000 1.000000
vn -0.000000 0.000000 1.000000
vn -0.000000 0.000000 1.000000
vn -0.000000 0.000000 1.000000
vn -0.000000 0.000000 1.000000
vn -0.000000 0.000000 1.000000
vn -0.000000 0.000000 1.000000
vn -0.000000 0.000000 1.000000
vn -0.000000 0.000000 1.000000
vn -0.000000 0.000000 1.000000
vn -0.000000 0.000000 1.000000
vn -0.000000 0.000000 1.000000
vn -0.000000 0.000000 1.000000
vn -0.000000 0.000000 1.000000
vn -0.000000 0.000000 1.000000
vn -0.000000 0.000000 1.000000
vn -0.000000 0.000000 1.000000
vn -0.000000 0.000000 1.000000
vn -1.000000 0.000000 -0.000000
vn -1.000000 0.000000 -0.000000
vn -1.000000 0.000000 -0.000000
vn -1.000000 0.000000 -0.000000
vn -1.000000 0.000000 -0.000000
vn -1.000000 0.000000 -0.000000
vn -1.000000 0.000000 0.000008
vn -1.000000 0.000000 0.000008
vn -1.000000 0.000000 0.000008
vn -1.000000 0.000000 -0.000000
vn -1.000000 0.000000 -0.000000
vn -1.000000 0.000000 -0.000000
vn -1.000000 0.000000 -0.000000
vn -1.000000 0.000000 -0.000000
vn -1.000000 0.000000 -0.000000
vn -1.000000 0.000000 -0.000000
vn -1.000000 0.000000 -0.000000
vn -1.000000 0.000000 -0.000000
vn -0.000000 0.000000 1.000000
vn -0.000000 0.000000 1.000000
vn -0.000000 0.000000 1.000000
vn -0.000000 0.000000 1.000000
vn -0.000000 0.000000 1.000000
vn -0.000000 0.000000 1.000000
vn -0.000000 0.000000 1.000000
vn -0.000000 0.000000 1.000000
vn -0.000000 0.000000 1.000000
vn -0.000000 0.000000 1.000000
vn -0.000000 0.000000 1.000000
vn -0.000000 0.000000 1.000000
vn -0.000000 0.000000 1.000000
vn -0.000000 0.000000 1.000000
vn -0.000000 0.000000 1.000000
vn -0.000000 0.000000 1.000000
vn -0.000000 0.000000 1.000000
vn -0.000000 0.000000 1.000000
vn 0.000000 -1.000000 0.000000
vn 0.000000 -1.000000 0.000000
vn 0.000000 -1.000000 0.000000
vn 0.000000 -1.000000 0.000000
vn 0.000000 -1.000000 0.000000
vn 0.000000 -1.000000 0.000000
vn -1.000000 0.000000 -0.000000
vn -1.000000 0.000000 -0.000000
vn -1.000000 0.000000 -0.000000
vn -0.000000 0.000000 1.000000
vn -0.000000 0.000000 1.000000
vn -0.000000 0.000000 1.000000
vn -0.000000 0.000000 1.000000
vn -0.000000 0.000000 1.000000
vn -0.000000 0.000000 1.000000
vn -0.000000 0.000000 1.000000
vn -0.000000 0.000000 1.000000
vn -0.000000 0.000000 1.000000
vn -0.000000 0.000000 1.000000
vn -0.000000 0.000000 1.000000
vn -0.000000 0.000000 1.000000
vn -0.000000 0.000000 1.000000
vn -0.000000 0.000000 1.000000
vn -0.000000 0.000000 1.000000
vn -0.000000 0.000000 1.000000
vn -0.000000 0.000000 1.000000
vn -0.000000 0.000000 1.000000
vn 0.000000 -1.000000 0.000000
vn 0.000000 -1.000000 0.000000
vn 0.000000 -1.000000 0.000000
vn 0.000000 -1.000000 0.000000
vn 0.000000 -1.000000 0.000000
vn 0.000000 -1.000000 0.000000
vn -1.000000 0.000000 -0.000000
vn -1.000000 0.000000 -0.000000
vn -1.000000 0.000000 -0.000000
vn 0.000000 -1.000000 0.000000
vn 0.000000 -1.000000 0.000000
vn 0.000000 -1.000000 0.000000
vn 0.000000 -1.000000 0.000000
vn 0.000000 -1.000000 0.000000
vn 0.000000 -1.000000 0.000000
vn -0.000000 0.000000 1.000000
vn -0.000000 0.000000 1.000000
vn -0.000000 0.000000 1.000000
vn -0.000000 0.000000 1.000000
vn -0.000000 0.000000 1.000000
vn -0.000000 0.000000 1.000000
vn 0.000000 -1.000000 0.000000
vn 0.000000 -1.000000 0.000000
vn 0.000000 -1.000000 0.000000
vn 0.000000 -1.000000 0.000000
vn 0.000000 -1.000000 0.000000
vn 0.000000 -1.000000 0.000000
vn -1.000000 0.000000 -0.000000
vn -1.000000 0.000000 -0.000000
vn -1.000000 0.000000 -0.000000
s off
g archivero:MeshpolySurface8
usemtl phong1SG
f 9/9/13 10/10/14 12/11/15
f 12/11/16 10/10/17 11/12/18
f 9/13/19 13/14/20 10/15/21
f 10/15/22 13/14/23 14/16/24
f 12/17/25 15/18/26 9/19/27
f 9/19/28 15/18/29 13/20/30
f 11/12/31 16/21/32 12/22/33
f 16/21/34 17/23/35 12/22/36
f 12/22/37 17/23/38 15/24/39
f 17/23/40 18/25/41 15/24/42
f 16/26/43 11/12/44 20/27/45
f 11/12/46 10/10/47 20/27/48
f 10/10/49 14/28/50 20/27/51
f 14/28/52 19/29/53 20/27/54
f 20/30/55 19/31/56 22/32/57
f 22/32/58 19/31/59 21/33/60
f 21/34/61 24/35/62 22/36/63
f 24/35/64 25/37/65 22/36/66
f 22/36/67 25/37/68 23/38/69
f 25/37/70 37/39/71 23/38/72
f 23/38/73 37/39/74 26/40/75
f 37/41/76 40/42/77 26/40/78
f 22/43/79 23/44/80 20/45/81
f 20/45/82 23/44/83 16/46/84
f 23/44/85 27/47/86 16/46/87
f 27/47/88 28/48/89 16/46/90
f 16/46/91 28/48/92 17/49/93
f 28/48/94 29/50/95 17/49/96
f 26/40/97 30/51/98 23/38/99
f 30/51/100 31/52/101 23/38/102
f 23/38/103 31/52/104 27/53/105
f 31/52/106 41/54/107 27/53/108
f 27/53/109 41/54/110 32/55/111
f 41/56/112 44/57/113 32/55/114
f 43/58/115 42/59/116 30/60/117
f 30/60/118 42/61/119 31/62/120
f 42/63/121 41/64/122 31/65/123
f 32/55/124 33/66/125 27/53/126
f 33/66/127 34/67/128 27/53/129
f 27/53/130 34/67/131 28/68/132
f 34/67/133 45/69/134 28/68/135
f 28/68/136 45/69/137 35/70/138
f 45/71/139 48/72/140 35/70/141
f 47/73/142 46/74/143 33/75/144
f 33/75/145 46/76/146 34/77/147
f 46/78/148 45/79/149 34/80/150
f 28/81/151 35/82/152 29/83/153
f 29/83/154 35/82/155 36/84/156
f 29/50/157 36/85/158 17/86/159
f 17/86/160 36/85/161 18/87/162
f 39/88/163 38/89/164 24/90/165
f 24/90/166 38/91/167 25/92/168
f 38/93/169 37/94/170 25/95/171
g default
v -0.013406 0.935090 0.223545
v -0.324561 0.935090 0.223545
v -0.013406 0.966840 0.210845
v -0.324561 0.966840 0.210845
vt 15.000000 34.098202
vt 15.000000 35.444500
vt 2.750000 34.098202
vt 2.750000 35.444500
vn 0.000000 0.371391 0.928477
vn 0.000000 0.371391 0.928477
vn 0.000000 0.371391 0.928477
vn -0.000000 0.371392 0.928476
vn -0.000000 0.371392 0.928476
vn -0.000000 0.371392 0.928476
s off
g archivero:MeshpolySurface1
usemtl phong2SG
f 49/96/172 51/97/173 50/98/174
f 50/98/175 51/97/176 52/99/177
g default
v -0.013406 0.331840 0.223545
v -0.324561 0.331840 0.223545
v -0.013406 0.363590 0.210845
v -0.324561 0.363590 0.210845
vt 15.000000 12.046900
vt 15.000000 13.393100
vt 2.750000 12.046900
vt 2.750000 13.393100
vn 0.000000 0.371390 0.928477
vn 0.000000 0.371390 0.928477
vn 0.000000 0.371390 0.928477
vn -0.000000 0.371392 0.928476
vn -0.000000 0.371392 0.928476
vn -0.000000 0.371392 0.928476
s off
g archivero:MeshpolySurface2
usemtl phong2SG
f 53/100/178 55/101/179 54/102/180
f 54/102/181 55/101/182 56/103/183
g default
v -0.013406 0.630291 0.223545
v -0.324561 0.630290 0.223545
v -0.013406 0.662040 0.210845
v -0.324561 0.662040 0.210845
vt 15.000000 22.956499
vt 15.000000 24.302799
vt 2.750000 22.956499
vt 2.750000 24.302799
vn -0.000001 0.371400 0.928473
vn -0.000001 0.371400 0.928473
vn -0.000001 0.371400 0.928473
vn -0.000000 0.371392 0.928476
vn -0.000000 0.371392 0.928476
vn -0.000000 0.371392 0.928476
s off
g archivero:MeshpolySurface3
usemtl phong2SG
f 57/104/184 59/105/185 58/106/186
f 58/106/187 59/105/188 60/107/189
g default
v 0.297744 0.935090 0.223545
v -0.013406 0.935090 0.223545
v -0.013406 0.966840 0.210845
v 0.297744 0.966840 0.210845
vt 2.750000 34.098202
vt 2.750000 35.444500
vt 15.000000 34.098202
vt 15.000000 35.444500
vn 0.000000 0.371390 0.928477
vn 0.000000 0.371390 0.928477
vn 0.000000 0.371390 0.928477
vn -0.000000 0.371391 0.928477
vn -0.000000 0.371391 0.928477
vn -0.000000 0.371391 0.928477
s off
g archivero:MeshpolySurface5
usemtl phong2SG
f 61/108/190 64/109/191 62/110/192
f 62/110/193 64/109/194 63/111/195
g default
v -0.394411 0.007358 -0.220955
v -0.394411 0.007358 0.236245
v -0.394411 1.023358 0.236245
v -0.394411 1.023358 -0.220955
v -0.013406 0.007358 -0.220955
v -0.013406 0.007358 0.210845
v -0.369011 0.007358 0.210845
v -0.369011 0.007358 0.236245
v -0.013406 1.023358 -0.220955
v -0.013406 1.023358 0.236245
v -0.369011 0.985258 0.236245
v -0.013406 0.985258 0.236245
v -0.369011 0.985258 0.223545
v -0.013406 0.985258 0.223545
v -0.013406 0.680458 0.223545
v -0.324561 0.966840 0.223545
v -0.013406 0.966840 0.223545
v -0.369011 0.680458 0.223545
v -0.369011 0.083558 0.210845
v -0.369011 0.083558 0.223545
v -0.369011 0.382008 0.223545
v -0.013406 0.083558 0.210845
v -0.013406 0.083558 0.223545
v -0.324561 0.363590 0.223545
v -0.013406 0.363590 0.223545
v -0.013406 0.382008 0.223545
v -0.324561 0.662040 0.223545
v -0.013406 0.662040 0.223545
v -0.013406 0.935090 0.223545
v -0.324561 0.935090 0.223545
v -0.324561 0.966840 0.210845
v -0.013406 0.966840 0.210845
v -0.013406 0.331840 0.223545
v -0.324561 0.331840 0.223545
v -0.324561 0.363590 0.210845
v -0.013406 0.363590 0.210845
v -0.013406 0.630291 0.223545
v -0.324561 0.630290 0.223545
v -0.324561 0.662040 0.210845
v -0.013406 0.662040 0.210845
vt -18.000000 0.000000
vt 0.000000 0.000000
vt -18.000000 40.000000
vt 0.000000 40.000000
vt 0.000000 18.000000
vt -15.000000 18.000000
vt -15.000000 1.000000
vt -1.000000 1.000000
vt -1.000000 0.000000
vt 0.000000 40.000000
vt -15.000000 40.000000
vt 0.000000 0.000000
vt -15.000000 0.000000
vt 0.000000 0.000000
vt 15.000000 0.000000
vt 0.000000 18.000000
vt 15.000000 18.000000
vt 15.000000 38.500000
vt 15.000000 40.000000
vt 1.000000 38.500000
vt 1.000000 0.000000
vt -1.000000 0.500000
vt -15.000000 0.500000
vt -1.000000 0.000000
vt -15.000000 0.000000
vt 15.000000 26.500000
vt 15.000000 36.524899
vt 1.000000 26.500000
vt 15.000000 36.524899
vt 2.750000 36.524899
vt 2.750000 36.524899
vt 1.000000 38.500000
vt 2.750000 37.774899
vt 15.000000 38.500000
vt 15.000000 37.774899
vt -15.000000 0.500000
vt -2.750000 0.500000
vt -15.000000 1.000000
vt -15.000000 1.000000
vt -2.750000 1.000000
vt 0.500000 37.774899
vt 0.500000 36.524899
vt 1.000000 37.774899
vt 0.000000 38.500000
vt 0.000000 0.000000
vt 0.500000 38.500000
vt 0.500000 26.500000
vt 0.500000 14.750000
vt 0.500000 3.000000
vt 1.000000 0.000000
vt 1.000000 3.000000
vt 1.000000 0.000000
vt 15.000000 0.000000
vt 15.000000 3.000000
vt -1.000000 1.000000
vt -15.000000 1.000000
vt -1.000000 0.500000
vt -15.000000 0.500000
vt 15.000000 3.000000
vt 15.000000 12.774900
vt 1.000000 3.000000
vt 15.000000 12.774900
vt 2.750000 12.774900
vt 2.750000 12.774900
vt 1.000000 14.750000
vt 2.750000 14.024900
vt 15.000000 14.750000
vt 15.000000 14.024900
vt -15.000000 0.500000
vt -2.750000 0.500000
vt -15.000000 1.000000
vt -15.000000 1.000000
vt -2.750000 1.000000
vt 0.500000 14.024900
vt 0.500000 12.774900
vt 1.000000 14.024900
vt 15.000000 24.524900
vt 15.000000 24.524900
vt 2.750000 24.524900
vt 2.750000 24.524900
vt 2.750000 25.774900
vt 15.000000 25.774900
vt -15.000000 0.500000
vt -2.750000 0.500000
vt -15.000000 1.000000
vt -15.000000 1.000000
vt -2.750000 1.000000
vt 0.500000 25.774900
vt 0.500000 24.524900
vt 1.000000 25.774900
vn -1.000000 0.000000 0.000000
vn -1.000000 0.000000 0.000000
vn -1.000000 0.000000 0.000000
vn -1.000000 0.000000 -0.000000
vn -1.000000 0.000000 -0.000000
vn -1.000000 0.000000 -0.000000
vn 0.000000 -1.000000 0.000000
vn 0.000000 -1.000000 0.000000
vn 0.000000 -1.000000 0.000000
vn 0.000000 -1.000000 0.000000
vn 0.000000 -1.000000 0.000000
vn 0.000000 -1.000000 0.000000
vn 0.000000 -1.000000 0.000000
vn 0.000000 -1.000000 0.000000
vn 0.000000 -1.000000 0.000000
vn 0.000000 -1.000000 0.000000
vn 0.000000 -1.000000 0.000000
vn 0.000000 -1.000000 0.000000
vn 0.000000 0.000000 -1.000000
vn 0.000000 0.000000 -1.000000
vn 0.000000 0.000000 -1.000000
vn 0.000000 0.000000 -1.000000
vn 0.000000 0.000000 -1.000000
vn 0.000000 0.000000 -1.000000
vn 0.000000 1.000000 0.000000
vn 0.000000 1.000000 0.000000
vn 0.000000 1.000000 0.000000
vn 0.000000 1.000000 0.000000
vn 0.000000 1.000000 0.000000
vn 0.000000 1.000000 0.000000
vn -0.000000 0.000000 1.000000
vn -0.000000 0.000000 1.000000
vn -0.000000 0.000000 1.000000
vn -0.000000 0.000000 1.000000
vn -0.000000 0.000000 1.000000
vn -0.000000 0.000000 1.000000
vn -0.000000 0.000000 1.000000
vn -0.000000 0.000000 1.000000
vn -0.000000 0.000000 1.000000
vn -0.000000 0.000000 1.000000
vn -0.000000 0.000000 1.000000
vn -0.000000 0.000000 1.000000
vn 0.000000 -1.000000 0.000000
vn 0.000000 -1.000000 0.000000
vn 0.000000 -1.000000 0.000000
vn 0.000000 -1.000000 0.000000
vn 0.000000 -1.000000 0.000000
vn 0.000000 -1.000000 0.000000
vn -0.000000 0.000000 1.000000
vn -0.000000 0.000000 1.000000
vn -0.000000 0.000000 1.000000
vn -0.000000 0.000000 1.000000
vn -0.000000 0.000000 1.000000
vn -0.000000 0.000000 1.000000
vn -0.000000 0.000000 1.000000
vn -0.000000 0.000000 1.000000
vn -0.000000 0.000000 1.000000
vn -0.000000 0.000000 1.000000
vn -0.000000 0.000000 1.000000
vn -0.000000 0.000000 1.000000
vn -0.000000 0.000000 1.000000
vn -0.000000 0.000000 1.000000
vn -0.000000 0.000000 1.000000
vn -0.000000 0.000000 1.000000
vn -0.000000 0.000000 1.000000
vn -0.000000 0.000000 1.000000
vn 0.000000 -1.000000 0.000000
vn 0.000000 -1.000000 0.000000
vn 0.000000 -1.000000 0.000000
vn 0.000000 -1.000000 0.000000
vn 0.000000 -1.000000 0.000000
vn 0.000000 -1.000000 0.000000
vn 1.000000 0.000000 0.000000
vn 1.000000 0.000000 0.000000
vn 1.000000 0.000000 0.000000
vn 1.000000 0.000000 0.000000
vn 1.000000 0.000000 0.000000
vn 1.000000 0.000000 0.000000
vn 1.000000 0.000000 -0.000004
vn 1.000000 0.000000 -0.000004
vn 1.000000 0.000000 -0.000004
vn 1.000000 0.000000 0.000008
vn 1.000000 0.000000 0.000008
vn 1.000000 0.000000 0.000008
vn 1.000000 0.000000 0.000000
vn 1.000000 0.000000 0.000000
vn 1.000000 0.000000 0.000000
vn 1.000000 0.000000 0.000000
vn 1.000000 0.000000 0.000000
vn 1.000000 0.000000 0.000000
vn 1.000000 0.000000 0.000000
vn 1.000000 0.000000 0.000000
vn 1.000000 0.000000 0.000000
vn -0.000000 0.000000 1.000000
vn -0.000000 0.000000 1.000000
vn -0.000000 0.000000 1.000000
vn -0.000000 0.000000 1.000000
vn -0.000000 0.000000 1.000000
vn -0.000000 0.000000 1.000000
vn 0.000000 -1.000000 0.000000
vn 0.000000 -1.000000 0.000000
vn 0.000000 -1.000000 0.000000
vn 0.000000 -1.000000 0.000000
vn 0.000000 -1.000000 0.000000
vn 0.000000 -1.000000 0.000000
vn -0.000000 0.000000 1.000000
vn -0.000000 0.000000 1.000000
vn -0.000000 0.000000 1.000000
vn -0.000000 0.000000 1.000000
vn -0.000000 0.000000 1.000000
vn -0.000000 0.000000 1.000000
vn -0.000000 0.000000 1.000000
vn -0.000000 0.000000 1.000000
vn -0.000000 0.000000 1.000000
vn -0.000000 0.000000 1.000000
vn -0.000000 0.000000 1.000000
vn -0.000000 0.000000 1.000000
vn -0.000000 0.000000 1.000000
vn -0.000000 0.000000 1.000000
vn -0.000000 0.000000 1.000000
vn -0.000000 0.000000 1.000000
vn -0.000000 0.000000 1.000000
vn -0.000000 0.000000 1.000000
vn 0.000000 -1.000000 0.000000
vn 0.000000 -1.000000 0.000000
vn 0.000000 -1.000000 0.000000
vn 0.000000 -1.000000 0.000000
vn 0.000000 -1.000000 0.000000
vn 0.000000 -1.000000 0.000000
vn 1.000000 0.000000 0.000000
vn 1.000000 0.000000 0.000000
vn 1.000000 0.000000 0.000000
vn -0.000000 0.000000 1.000000
vn -0.000000 0.000000 1.000000
vn -0.000000 0.000000 1.000000
vn -0.000000 0.000000 1.000000
vn -0.000000 0.000000 1.000000
vn -0.000000 0.000000 1.000000
vn -0.000000 0.000000 1.000000
vn -0.000000 0.000000 1.000000
vn -0.000000 0.000000 1.000000
vn -0.000000 0.000000 1.000000
vn -0.000000 0.000000 1.000000
vn -0.000000 0.000000 1.000000
vn -0.000000 0.000000 1.000000
vn -0.000000 0.000000 1.000000
vn -0.000000 0.000000 1.000000
vn -0.000000 0.000000 1.000000
vn -0.000000 0.000000 1.000000
vn -0.000000 0.000000 1.000000
vn 0.000000 -1.000000 0.000000
vn 0.000000 -1.000000 0.000000
vn 0.000000 -1.000000 0.000000
vn 0.000000 -1.000000 0.000000
vn 0.000000 -1.000000 0.000000
vn 0.000000 -1.000000 0.000000
vn 1.000000 0.000000 0.000000
vn 1.000000 0.000000 0.000000
vn 1.000000 0.000000 0.000000
s off
g archivero:MeshpolySurface7
usemtl phong1SG
f 65/112/196 66/113/197 68/114/198
f 68/114/199 66/113/200 67/115/201
f 65/116/202 69/117/203 66/113/204
f 70/118/205 71/119/206 69/117/207
f 69/117/208 71/119/209 66/113/210
f 71/119/211 72/120/212 66/113/213
f 68/121/214 73/122/215 65/123/216
f 65/123/217 73/122/218 69/124/219
f 67/125/220 74/126/221 68/127/222
f 68/127/223 74/126/224 73/128/225
f 76/129/226 74/130/227 75/131/228
f 74/130/229 67/115/230 75/131/231
f 67/115/232 66/113/233 75/131/234
f 75/131/235 66/113/236 72/132/237
f 77/133/238 78/134/239 75/135/240
f 75/135/241 78/134/242 76/136/243
f 79/137/244 93/138/245 82/139/246
f 93/140/247 94/141/248 82/139/249
f 82/139/250 94/142/251 77/143/252
f 94/142/253 80/144/254 77/143/255
f 77/143/256 80/144/257 78/145/258
f 80/144/259 81/146/260 78/145/261
f 81/147/262 80/148/263 96/149/264
f 96/150/265 80/148/266 95/151/267
f 80/152/268 94/153/269 95/154/270
f 75/155/271 72/156/272 77/157/273
f 77/157/274 72/156/275 82/158/276
f 82/158/277 72/156/278 85/159/279
f 85/159/280 72/156/281 84/160/282
f 72/156/283 71/161/284 84/160/285
f 71/161/286 83/162/287 84/160/288
f 71/163/289 70/164/290 83/162/291
f 83/162/292 70/164/293 86/165/294
f 83/166/295 86/167/296 84/168/297
f 84/168/298 86/167/299 87/169/300
f 87/170/301 97/171/302 84/172/303
f 97/173/304 98/174/305 84/172/306
f 84/172/307 98/175/308 85/176/309
f 98/175/310 88/177/311 85/176/312
f 85/176/313 88/177/314 90/178/315
f 88/177/316 89/179/317 90/178/318
f 89/180/319 88/181/320 100/182/321
f 100/183/322 88/181/323 99/184/324
f 88/185/325 98/186/326 99/187/327
f 90/178/328 101/188/329 85/176/330
f 101/189/331 102/190/332 85/176/333
f 85/176/334 102/191/335 82/139/336
f 102/191/337 91/192/338 82/139/339
f 82/139/340 91/192/341 79/137/342
f 91/192/343 92/193/344 79/137/345
f 92/194/346 91/195/347 104/196/348
f 104/197/349 91/195/350 103/198/351
f 91/199/352 102/200/353 103/201/354
