# This file uses centimeters as units for non-parametric coordinates.

mtllib BE.mtl
g default
v -0.700000 -1.000000 0.050800
v -0.700000 -1.000000 0.000000
v -0.661201 -1.000000 0.000000
v -0.661201 -1.000000 0.050800
v -0.700000 1.000000 0.050800
v -0.700000 1.000000 0.000000
v 0.700000 1.000000 0.050800
v 0.700000 1.000000 0.000000
v 0.700000 -1.000000 0.050800
v 0.700000 -1.000000 0.000000
v 0.661099 -1.000000 0.050800
v 0.661099 -1.000000 0.000000
v 0.661099 0.951220 0.050800
v 0.661099 0.951220 -0.050800
v 0.661099 -1.000000 -0.050800
v -0.661201 0.951220 0.050800
v -0.661201 0.951220 -0.050800
v -0.661201 -1.000000 -0.050800
v -0.700000 -1.000000 -0.050800
v -0.700000 1.000000 -0.050800
v 0.700000 1.000000 -0.050800
v 0.700000 -1.000000 -0.050800
vt 0.000000 0.032258
vt 0.000000 0.000000
vt 0.032258 0.000000
vt 0.032258 0.032258
vt -1.322580 0.032258
vt -1.322580 0.000000
vt -1.161290 0.032258
vt -1.161290 0.000000
vt 0.000000 0.000000
vt 0.000000 0.032258
vt -0.000000 0.032258
vt -0.000000 0.000000
vt 1.322580 0.000000
vt 1.322580 0.032258
vt 1.129030 0.032258
vt 1.129030 0.000000
vt 1.161290 0.000000
vt 1.161290 0.032258
vt -1.290320 0.032258
vt -1.290320 -0.032258
vt 0.000000 -0.032258
vt 0.000000 0.000000
vt 0.000000 0.032258
vt 0.032258 0.032258
vt 0.032258 -0.032258
vt 1.129030 -0.032258
vt 1.129030 0.032258
vt -0.000000 0.032258
vt -0.000000 0.000000
vt -0.000000 -0.032258
vt 1.290320 -0.032258
vt 1.290320 0.032258
vt 0.032258 -0.032258
vt 0.000000 -0.032258
vt -1.322580 -0.032258
vt 0.000000 -0.032258
vt -1.161290 -0.032258
vt 1.322580 -0.032258
vt -0.000000 -0.032258
vt 1.161290 -0.032258
vt 1.129030 -0.032258
vt -1.161290 1.322580
vt -1.161290 0.000000
vt -1.129030 0.000000
vt -1.129030 1.290320
vt -0.032258 1.290320
vt -0.032258 0.000000
vt 0.000000 0.000000
vt 0.000000 1.322580
vt 0.000000 0.000000
vt 0.032258 0.000000
vt 0.032258 1.290320
vt 1.129030 1.290320
vt 1.129030 0.000000
vt 1.161290 0.000000
vt 1.161290 1.322580
vt 0.000000 1.322580
vn 0.000000 -1.000000 0.000000
vn 0.000000 -1.000000 0.000000
vn 0.000000 -1.000000 0.000000
vn 0.000000 -1.000000 0.000000
vn -1.000000 0.000000 -0.000000
vn -1.000000 0.000000 -0.000000
vn -1.000000 0.000000 -0.000000
vn -1.000000 0.000000 -0.000000
vn 0.000000 1.000000 0.000000
vn 0.000000 1.000000 0.000000
vn 0.000000 1.000000 0.000000
vn 0.000000 1.000000 0.000000
vn 1.000000 -0.000000 0.000000
vn 1.000000 -0.000000 0.000000
vn 1.000000 -0.000000 0.000000
vn 1.000000 -0.000000 0.000000
vn 0.000000 -1.000000 0.000000
vn 0.000000 -1.000000 0.000000
vn 0.000000 -1.000000 0.000000
vn 0.000000 -1.000000 0.000000
vn -1.000000 0.000000 -0.000000
vn -1.000000 0.000000 -0.000000
vn -1.000000 0.000000 -0.000000
vn -1.000000 0.000000 -0.000000
vn -1.000000 0.000000 -0.000000
vn 0.000000 -1.000000 0.000000
vn 0.000000 -1.000000 0.000000
vn 0.000000 -1.000000 0.000000
vn 0.000000 -1.000000 0.000000
vn 1.000000 0.000000 0.000000
vn 1.000000 0.000000 0.000000
vn 1.000000 0.000000 0.000000
vn 1.000000 0.000000 0.000000
vn 1.000000 0.000000 0.000000
vn 0.000000 -1.000000 0.000000
vn 0.000000 -1.000000 0.000000
vn 0.000000 -1.000000 0.000000
vn 0.000000 -1.000000 0.000000
vn -1.000000 0.000000 -0.000000
vn -1.000000 0.000000 -0.000000
vn -1.000000 0.000000 -0.000000
vn -1.000000 0.000000 -0.000000
vn 0.000000 1.000000 0.000000
vn 0.000000 1.000000 0.000000
vn 0.000000 1.000000 0.000000
vn 0.000000 1.000000 0.000000
vn 1.000000 -0.000000 0.000000
vn 1.000000 -0.000000 0.000000
vn 1.000000 -0.000000 0.000000
vn 1.000000 -0.000000 0.000000
vn 0.000000 -1.000000 0.000000
vn 0.000000 -1.000000 0.000000
vn 0.000000 -1.000000 0.000000
vn 0.000000 -1.000000 0.000000
vn 0.000000 0.000000 -1.000000
vn 0.000000 0.000000 -1.000000
vn 0.000000 0.000000 -1.000000
vn 0.000000 0.000000 -1.000000
vn 0.000000 0.000000 -1.000000
vn 0.000000 0.000000 -1.000000
vn 0.000000 0.000000 -1.000000
vn 0.000000 0.000000 -1.000000
vn 0.000000 0.000000 1.000000
vn 0.000000 0.000000 1.000000
vn 0.000000 0.000000 1.000000
vn 0.000000 0.000000 1.000000
vn 0.000000 0.000000 1.000000
vn 0.000000 0.000000 1.000000
vn 0.000000 0.000000 1.000000
vn 0.000000 0.000000 1.000000
s off
g entradaB:Mesh32Door_Glass_Sliding_6_0_1Model
usemtl entradaB:Cladding_Plaster_White
f 1/1/1 2/2/2 3/3/3 4/4/4
f 5/5/5 6/6/6 2/2/7 1/1/8
f 7/7/9 8/8/10 6/9/11 5/10/12
f 9/11/13 10/12/14 8/13/15 7/14/16
f 11/15/17 12/16/18 10/17/19 9/18/20
f 13/19/21 14/20/22 15/21/23 12/22/24 11/23/25
f 16/24/26 17/25/27 14/26/28 13/27/29
f 4/28/30 3/29/31 18/30/32 17/31/33 16/32/34
f 18/33/35 3/3/36 2/2/37 19/34/38
f 19/34/39 2/2/40 6/6/41 20/35/42
f 20/36/43 6/9/44 8/8/45 21/37/46
f 21/38/47 8/13/48 10/12/49 22/39/50
f 22/40/51 10/17/52 12/16/53 15/41/54
f 21/42/55 22/43/56 15/44/57 14/45/58 17/46/59 18/47/60 19/48/61 20/49/62
f 1/50/63 4/51/64 16/52/65 13/53/66 11/54/67 9/55/68 7/56/69 5/57/70
