# This file uses centimeters as units for non-parametric coordinates.

mtllib VBB.mtl
g default
v -0.583349 0.878051 0.012700
v -0.038850 0.878051 0.012700
v -0.038850 0.878051 0.025400
v -0.583349 0.878051 0.025400
v -0.583349 -0.878049 0.012700
v -0.038850 -0.878049 0.012700
v -0.583349 -0.878049 0.025400
v -0.038850 -0.878049 0.025400
v -0.038850 -0.878049 0.000000
v -0.583349 -0.878049 0.000000
v -0.038850 0.878051 0.000000
v 0.038851 -0.975610 0.025400
v -0.661150 -0.975610 0.025400
v -0.638849 -0.170729 0.025400
v -0.661150 0.975610 0.025400
v -0.638849 -0.024390 0.025400
v 0.038851 0.975610 0.025400
v 0.038851 -0.975610 0.000000
v 0.038851 0.975610 0.000000
v -0.661150 -0.975610 0.000000
v -0.661150 0.975610 0.000000
v -0.583349 0.878051 0.000000
v -0.613849 -0.024390 0.025400
v -0.613849 -0.170729 0.025400
v 0.038851 0.878051 -0.012700
v 0.583350 0.878051 -0.012700
v 0.583350 0.878051 0.000000
v 0.038851 0.878051 0.000000
v 0.038851 -0.878049 -0.012700
v 0.583350 -0.878049 -0.012700
v 0.038851 -0.878049 0.000000
v 0.583350 -0.878049 0.000000
v 0.583350 -0.878049 -0.025400
v 0.038851 -0.878049 -0.025400
v 0.583350 0.878051 -0.025400
v 0.661150 -0.975610 0.000000
v -0.038850 -0.975610 0.000000
v -0.016550 -0.170729 0.000000
v -0.038850 0.975610 0.000000
v -0.016550 -0.024390 0.000000
v 0.661150 0.975610 0.000000
v 0.661150 -0.975610 -0.025400
v 0.661150 0.975610 -0.025400
v -0.038850 -0.975610 -0.025400
v -0.038850 0.975610 -0.025400
v 0.038851 0.878051 -0.025400
v 0.008351 -0.024390 0.000000
v 0.008351 -0.170729 0.000000
vt 0.064516 0.008065
vt 0.516129 0.008065
vt 0.516129 0.016129
vt 0.064516 0.016129
vt -0.516129 0.008065
vt -0.064516 0.008065
vt -0.064516 0.016129
vt -0.516129 0.016129
vt -0.516129 0.000000
vt -0.064516 0.000000
vt -0.064516 0.008065
vt -1.225810 0.008065
vt -1.225810 0.000000
vt -0.064516 0.000000
vt -0.064516 0.008065
vt -0.064516 0.016129
vt -1.225810 0.016129
vt 0.516129 0.064516
vt 0.580645 0.000000
vt 0.516129 1.225810
vt 0.064516 0.064516
vt 0.000000 0.000000
vt 0.018487 0.532258
vt 0.000000 1.290320
vt 0.018487 0.629032
vt 0.064516 1.225810
vt 0.580645 1.290320
vt -0.000000 0.016129
vt -0.000000 0.000000
vt 1.290320 0.000000
vt 1.290320 0.016129
vt 0.000000 0.016129
vt 0.000000 0.000000
vt 0.580645 0.000000
vt 0.580645 0.016129
vt -1.290320 0.016129
vt -1.290320 0.000000
vt -0.580645 0.016129
vt -0.580645 0.000000
vt 0.000000 0.000000
vt 0.000000 0.016129
vt -0.064516 1.225810
vt -0.000000 1.290320
vt -0.580645 1.290320
vt -0.064516 0.064516
vt -0.580645 0.000000
vt -0.516129 0.064516
vt -0.516129 1.225810
vt 0.064516 0.000000
vt 0.516129 0.000000
vt 1.225810 0.008065
vt 0.064516 0.008065
vt 0.064516 0.000000
vt 1.225810 0.000000
vt 0.064516 0.008065
vt 1.225810 0.016129
vt 0.064516 0.016129
vt 0.039161 0.629032
vt 0.039161 0.532258
vt 0.064516 0.008065
vt 0.516129 0.008065
vt 0.516129 0.016129
vt 0.064516 0.016129
vt -0.516129 0.008065
vt -0.064516 0.008065
vt -0.064516 0.016129
vt -0.516129 0.016129
vt -0.516129 0.000000
vt -0.064516 0.000000
vt -0.064516 0.008065
vt -1.225810 0.008065
vt -1.225810 0.000000
vt -0.064516 0.000000
vt -0.064516 0.008065
vt -0.064516 0.016129
vt -1.225810 0.016129
vt 0.516129 0.064516
vt 0.580645 0.000000
vt 0.516129 1.225810
vt 0.064516 0.064516
vt 0.000000 0.000000
vt 0.018487 0.532258
vt 0.000000 1.290320
vt 0.018487 0.629032
vt 0.064516 1.225810
vt 0.580645 1.290320
vt -0.000000 0.016129
vt -0.000000 0.000000
vt 1.290320 0.000000
vt 1.290320 0.016129
vt 0.000000 0.016129
vt 0.000000 0.000000
vt 0.580645 0.000000
vt 0.580645 0.016129
vt -1.290320 0.016129
vt -1.290320 0.000000
vt -0.580645 0.016129
vt -0.580645 0.000000
vt 0.000000 0.000000
vt 0.000000 0.016129
vt -0.064516 1.225810
vt -0.000000 1.290320
vt -0.580645 1.290320
vt -0.064516 0.064516
vt -0.580645 0.000000
vt -0.516129 0.064516
vt -0.516129 1.225810
vt 0.064516 0.000000
vt 0.516129 0.000000
vt 1.225810 0.008065
vt 0.064516 0.008065
vt 0.064516 0.000000
vt 1.225810 0.000000
vt 0.064516 0.008065
vt 1.225810 0.016129
vt 0.064516 0.016129
vt 0.039161 0.629032
vt 0.039161 0.532258
vn 0.000000 -1.000000 0.000000
vn 0.000000 -1.000000 0.000000
vn 0.000000 -1.000000 0.000000
vn 0.000000 -1.000000 0.000000
vn 0.000000 1.000000 0.000000
vn 0.000000 1.000000 0.000000
vn 0.000000 1.000000 0.000000
vn 0.000000 1.000000 0.000000
vn 0.000000 1.000000 0.000000
vn 0.000000 1.000000 0.000000
vn 0.000000 1.000000 0.000000
vn 0.000000 1.000000 0.000000
vn -1.000000 0.000000 0.000000
vn -1.000000 0.000000 0.000000
vn -1.000000 0.000000 0.000000
vn -1.000000 0.000000 0.000000
vn -1.000000 0.000000 0.000000
vn -1.000000 0.000000 0.000000
vn -1.000000 0.000000 0.000000
vn -1.000000 0.000000 0.000000
vn 0.000000 0.000000 1.000000
vn 0.000000 0.000000 1.000000
vn 0.000000 0.000000 1.000000
vn 0.000000 0.000000 1.000000
vn 0.000000 0.000000 1.000000
vn 0.000000 0.000000 1.000000
vn 0.000000 0.000000 1.000000
vn 0.000000 0.000000 1.000000
vn 0.000000 0.000000 1.000000
vn 0.000000 0.000000 1.000000
vn 0.000000 0.000000 1.000000
vn 0.000000 0.000000 1.000000
vn 0.000000 0.000000 1.000000
vn 0.000000 0.000000 1.000000
vn 0.000000 0.000000 1.000000
vn 0.000000 0.000000 1.000000
vn 0.000000 0.000000 1.000000
vn 0.000000 0.000000 1.000000
vn 0.000000 0.000000 1.000000
vn 0.000000 0.000000 1.000000
vn 0.000000 0.000000 1.000000
vn 0.000000 0.000000 1.000000
vn 0.000000 0.000000 1.000000
vn 0.000000 0.000000 1.000000
vn 0.000000 0.000000 1.000000
vn 0.000000 0.000000 1.000000
vn 0.000000 0.000000 1.000000
vn 0.000000 0.000000 1.000000
vn 0.000000 0.000000 1.000000
vn 0.000000 0.000000 1.000000
vn 1.000000 0.000000 0.000000
vn 1.000000 0.000000 0.000000
vn 1.000000 0.000000 0.000000
vn 1.000000 0.000000 0.000000
vn 0.000000 -1.000000 0.000000
vn 0.000000 -1.000000 0.000000
vn 0.000000 -1.000000 0.000000
vn 0.000000 -1.000000 0.000000
vn -1.000000 0.000000 0.000000
vn -1.000000 0.000000 0.000000
vn -1.000000 0.000000 0.000000
vn -1.000000 0.000000 0.000000
vn 0.000000 1.000000 0.000000
vn 0.000000 1.000000 0.000000
vn 0.000000 1.000000 0.000000
vn 0.000000 1.000000 0.000000
vn 0.000000 0.000000 -1.000000
vn 0.000000 0.000000 -1.000000
vn 0.000000 0.000000 -1.000000
vn 0.000000 0.000000 -1.000000
vn 0.000000 0.000000 -1.000000
vn 0.000000 0.000000 -1.000000
vn 0.000000 0.000000 -1.000000
vn 0.000000 0.000000 -1.000000
vn 0.000000 0.000000 -1.000000
vn 0.000000 0.000000 -1.000000
vn 0.000000 0.000000 -1.000000
vn 0.000000 0.000000 -1.000000
vn 0.000000 0.000000 -1.000000
vn 0.000000 0.000000 -1.000000
vn 0.000000 0.000000 -1.000000
vn 0.000000 0.000000 -1.000000
vn 0.000000 0.000000 -1.000000
vn 0.000000 0.000000 -1.000000
vn 0.000000 0.000000 -1.000000
vn 0.000000 0.000000 -1.000000
vn 0.000000 0.000000 -1.000000
vn 0.000000 0.000000 -1.000000
vn 0.000000 0.000000 -1.000000
vn 0.000000 0.000000 -1.000000
vn 0.000000 -1.000000 0.000000
vn 0.000000 -1.000000 0.000000
vn 0.000000 -1.000000 0.000000
vn 0.000000 -1.000000 0.000000
vn 1.000000 0.000000 0.000000
vn 1.000000 0.000000 0.000000
vn 1.000000 0.000000 0.000000
vn 1.000000 0.000000 0.000000
vn 1.000000 0.000000 0.000000
vn 1.000000 0.000000 0.000000
vn 1.000000 0.000000 0.000000
vn 1.000000 0.000000 0.000000
vn 0.000000 0.000000 1.000000
vn 0.000000 0.000000 1.000000
vn 0.000000 0.000000 1.000000
vn 0.000000 0.000000 1.000000
vn 0.000000 0.000000 1.000000
vn 0.000000 0.000000 1.000000
vn 0.000000 0.000000 1.000000
vn 0.000000 0.000000 1.000000
vn 0.000000 0.000000 1.000000
vn 0.000000 0.000000 1.000000
vn 0.000000 0.000000 1.000000
vn 0.000000 0.000000 1.000000
vn 0.000000 0.000000 1.000000
vn 0.000000 0.000000 1.000000
vn 0.000000 0.000000 1.000000
vn 0.000000 0.000000 1.000000
vn 0.000000 -1.000000 0.000004
vn 0.000000 -1.000000 0.000004
vn 0.000000 -1.000000 0.000004
vn 0.000000 -1.000000 0.000004
vn 0.000000 1.000000 0.000000
vn 0.000000 1.000000 0.000000
vn 0.000000 1.000000 0.000000
vn 0.000000 1.000000 0.000000
vn 0.000000 1.000000 0.000000
vn 0.000000 1.000000 0.000000
vn 0.000000 1.000000 0.000000
vn 0.000000 1.000000 0.000000
vn -1.000000 0.000000 0.000000
vn -1.000000 0.000000 0.000000
vn -1.000000 0.000000 0.000000
vn -1.000000 0.000000 0.000000
vn -1.000000 0.000000 0.000000
vn -1.000000 0.000000 0.000000
vn -1.000000 0.000000 0.000000
vn -1.000000 0.000000 0.000000
vn 0.000000 0.000000 1.000000
vn 0.000000 0.000000 1.000000
vn 0.000000 0.000000 1.000000
vn 0.000000 0.000000 1.000000
vn 0.000000 0.000000 1.000000
vn 0.000000 0.000000 1.000000
vn 0.000000 0.000000 1.000000
vn 0.000000 0.000000 1.000000
vn 0.000000 0.000000 1.000000
vn 0.000000 0.000000 1.000000
vn 0.000000 0.000000 1.000000
vn 0.000000 0.000000 1.000000
vn 0.000000 0.000000 1.000000
vn 0.000000 0.000000 1.000000
vn 0.000000 0.000000 1.000000
vn 0.000000 0.000000 1.000000
vn 0.000000 0.000000 1.000000
vn 0.000000 0.000000 1.000000
vn 0.000000 0.000000 1.000000
vn 0.000000 0.000000 1.000000
vn 0.000000 0.000000 1.000000
vn 0.000000 0.000000 1.000000
vn 0.000000 0.000000 1.000000
vn 0.000000 0.000000 1.000000
vn 0.000000 0.000000 1.000000
vn 0.000000 0.000000 1.000000
vn 0.000000 0.000000 1.000000
vn 0.000000 0.000000 1.000000
vn 0.000000 0.000000 1.000000
vn 0.000000 0.000000 1.000000
vn 1.000000 0.000000 0.000000
vn 1.000000 0.000000 0.000000
vn 1.000000 0.000000 0.000000
vn 1.000000 0.000000 0.000000
vn 0.000000 -1.000000 0.000000
vn 0.000000 -1.000000 0.000000
vn 0.000000 -1.000000 0.000000
vn 0.000000 -1.000000 0.000000
vn -1.000000 0.000000 0.000000
vn -1.000000 0.000000 0.000000
vn -1.000000 0.000000 0.000000
vn -1.000000 0.000000 0.000000
vn 0.000000 1.000000 0.000000
vn 0.000000 1.000000 0.000000
vn 0.000000 1.000000 0.000000
vn 0.000000 1.000000 0.000000
vn 0.000000 0.000000 -1.000000
vn 0.000000 0.000000 -1.000000
vn 0.000000 0.000000 -1.000000
vn 0.000000 0.000000 -1.000000
vn 0.000000 0.000000 -1.000000
vn 0.000000 0.000000 -1.000000
vn 0.000000 0.000000 -1.000000
vn 0.000000 0.000000 -1.000000
vn 0.000000 0.000000 -1.000000
vn 0.000000 0.000000 -1.000000
vn 0.000000 0.000000 -1.000000
vn 0.000000 0.000000 -1.000000
vn 0.000000 0.000000 -1.000000
vn 0.000000 0.000000 -1.000000
vn 0.000000 0.000000 -1.000000
vn 0.000000 0.000000 -1.000000
vn 0.000000 0.000000 -1.000000
vn 0.000000 0.000000 -1.000000
vn 0.000000 0.000000 -1.000000
vn 0.000000 0.000000 -1.000000
vn 0.000000 0.000000 -1.000000
vn 0.000000 0.000000 -1.000000
vn 0.000000 0.000000 -1.000000
vn 0.000000 0.000000 -1.000000
vn 0.000000 -1.000000 0.000000
vn 0.000000 -1.000000 0.000000
vn 0.000000 -1.000000 0.000000
vn 0.000000 -1.000000 0.000000
vn 1.000000 0.000000 0.000000
vn 1.000000 0.000000 0.000000
vn 1.000000 0.000000 0.000000
vn 1.000000 0.000000 0.000000
vn 1.000000 0.000000 0.000000
vn 1.000000 0.000000 0.000000
vn 1.000000 0.000000 0.000000
vn 1.000000 0.000000 0.000000
vn 0.000000 0.000000 1.000000
vn 0.000000 0.000000 1.000000
vn 0.000000 0.000000 1.000000
vn 0.000000 0.000000 1.000000
vn 0.000000 0.000000 1.000000
vn 0.000000 0.000000 1.000000
vn 0.000000 0.000000 1.000000
vn 0.000000 0.000000 1.000000
vn 0.000000 0.000000 1.000000
vn 0.000000 0.000000 1.000000
vn 0.000000 0.000000 1.000000
vn 0.000000 0.000000 1.000000
vn 0.000000 0.000000 1.000000
vn 0.000000 0.000000 1.000000
vn 0.000000 0.000000 1.000000
vn 0.000000 0.000000 1.000000
s off
g polySurface2
usemtl ventanasB:Cladding_Plaster_White
f 1/1/1 2/2/2 3/3/3 4/4/4
f 6/5/5 5/6/6 7/7/7 8/8/8
f 5/6/9 6/5/10 9/9/11 10/10/12
f 6/11/13 2/12/14 11/13/15 9/14/16
f 2/12/17 6/15/18 8/16/19 3/17/20
f 8/18/21 12/19/22 3/20/23
f 7/21/24 12/19/25 8/18/26
f 7/21/27 13/22/28 12/19/29
f 14/23/30 13/22/31 7/21/32
f 13/22/33 14/23/34 15/24/35
f 16/25/36 15/24/37 14/23/38
f 4/26/39 15/24/40 16/25/41
f 15/24/42 4/26/43 17/27/44
f 17/27/45 4/26/46 3/20/47
f 17/27/48 3/20/49 12/19/50
f 12/28/51 18/29/52 19/30/53 17/31/54
f 13/32/55 20/33/56 18/34/57 12/35/58
f 15/36/59 21/37/60 20/33/61 13/32/62
f 17/38/63 19/39/64 21/40/65 15/41/66
f 22/42/67 21/43/68 19/44/69
f 21/43/70 22/42/71 20/33/72
f 10/45/73 20/33/74 22/42/75
f 20/33/76 10/45/77 18/46/78
f 18/46/79 10/45/80 9/47/81
f 18/46/82 9/47/83 19/44/84
f 11/48/85 19/44/86 9/47/87
f 22/42/88 19/44/89 11/48/90
f 2/2/91 1/1/92 22/49/93 11/50/94
f 1/51/95 5/52/96 10/53/97 22/54/98
f 5/55/99 1/51/100 4/56/101 7/57/102
f 4/26/103 23/58/104 7/21/105
f 4/26/106 16/25/107 23/58/108
f 14/23/109 24/59/110 23/58/111 16/25/112
f 14/23/113 7/21/114 24/59/115
f 24/59/116 7/21/117 23/58/118
f 25/60/119 26/61/120 27/62/121 28/63/122
f 30/64/123 29/65/124 31/66/125 32/67/126
f 29/65/127 30/64/128 33/68/129 34/69/130
f 30/70/131 26/71/132 35/72/133 33/73/134
f 26/71/135 30/74/136 32/75/137 27/76/138
f 32/77/139 36/78/140 27/79/141
f 31/80/142 36/78/143 32/77/144
f 31/80/145 37/81/146 36/78/147
f 38/82/148 37/81/149 31/80/150
f 37/81/151 38/82/152 39/83/153
f 40/84/154 39/83/155 38/82/156
f 28/85/157 39/83/158 40/84/159
f 39/83/160 28/85/161 41/86/162
f 41/86/163 28/85/164 27/79/165
f 41/86/166 27/79/167 36/78/168
f 36/87/169 42/88/170 43/89/171 41/90/172
f 37/91/173 44/92/174 42/93/175 36/94/176
f 39/95/177 45/96/178 44/92/179 37/91/180
f 41/97/181 43/98/182 45/99/183 39/100/184
f 46/101/185 45/102/186 43/103/187
f 45/102/188 46/101/189 44/92/190
f 34/104/191 44/92/192 46/101/193
f 44/92/194 34/104/195 42/105/196
f 42/105/197 34/104/198 33/106/199
f 42/105/200 33/106/201 43/103/202
f 35/107/203 43/103/204 33/106/205
f 46/101/206 43/103/207 35/107/208
f 26/61/209 25/60/210 46/108/211 35/109/212
f 25/110/213 29/111/214 34/112/215 46/113/216
f 29/114/217 25/110/218 28/115/219 31/116/220
f 28/85/221 47/117/222 31/80/223
f 28/85/224 40/84/225 47/117/226
f 38/82/227 48/118/228 47/117/229 40/84/230
f 38/82/231 31/80/232 48/118/233
f 48/118/234 31/80/235 47/117/236
