# This file uses centimeters as units for non-parametric coordinates.

mtllib baseVPI.mtl
g default
v -0.038100 0.300310 -1.035049
v -0.038100 0.292191 1.022349
v -0.038100 0.300310 1.035049
v -0.038100 0.292191 -1.022349
v -0.038100 -0.275970 -1.022349
v -0.038100 -0.284080 -1.035049
v -0.038100 -0.275970 1.022349
v -0.038100 -0.284080 1.035049
v 0.012700 -0.284080 1.035049
v 0.012700 0.300310 1.035049
v 0.012700 -0.284080 -1.035049
v 0.012700 0.300310 -1.035049
v 0.012700 0.332780 -1.085850
v 0.012700 0.332780 1.085850
v 0.012700 -0.332780 1.085850
v 0.012700 -0.332780 -1.085850
v 0.038100 0.332780 -1.085850
v 0.038100 -0.332780 -1.085850
v 0.038100 0.332780 1.085850
v 0.038100 -0.332780 1.085850
v 0.038100 -0.284080 1.047750
v 0.038100 0.308430 1.047750
v 0.038100 0.308430 -1.047750
v 0.025400 0.300310 1.035049
v 0.025400 0.300310 -1.035049
v 0.025400 -0.284080 1.035049
v 0.038100 -0.284080 -1.047750
v 0.025400 -0.284080 -1.035049
v 0.025400 -0.275970 -1.022349
v 0.025400 -0.275970 1.022349
v 0.025400 0.292191 1.022349
v 0.025400 0.292191 -1.022349
v 0.012700 0.284081 1.009649
v 0.012700 0.284081 -1.009649
v 0.012700 -0.267849 1.009649
v 0.012700 -0.267849 -1.009649
v -0.019050 0.284081 -1.009649
v -0.019050 -0.267849 -1.009649
v -0.019050 0.284081 1.009649
v -0.019050 -0.267849 1.009649
vt -83.500000 39.000000
vt -2.500000 38.500000
vt -2.000000 39.000000
vt -83.000000 38.500000
vt -83.000000 3.500000
vt -83.500000 3.000000
vt -2.500000 3.500000
vt -2.000000 3.000000
vt -3.000000 -2.000000
vt -3.000000 0.000000
vt -39.000000 -0.000000
vt -39.000000 -2.000000
vt 83.500000 -2.000000
vt 83.500000 -0.000000
vt 2.000000 -0.000000
vt 2.000000 -2.000000
vt 39.000000 -2.000000
vt 39.000000 -0.000000
vt 3.000000 -0.000000
vt 3.000000 -2.000000
vt -2.000000 -2.000000
vt -2.000000 -0.000000
vt -83.500000 -0.000000
vt -83.500000 -2.000000
vt -2.000000 39.000000
vt -85.500000 41.000000
vt -83.500000 39.000000
vt -2.000000 39.000000
vt -0.000000 41.000000
vt -2.000000 39.000000
vt -2.000000 3.000000
vt -2.000000 3.000000
vt 0.000000 0.000000
vt -2.000000 3.000000
vt -85.500000 -0.000000
vt -2.000000 3.000000
vt -83.500000 3.000000
vt -83.500000 3.000000
vt -83.500000 39.000000
vt -83.500000 3.000000
vt -0.000000 -0.000000
vt 41.000000 -0.000000
vt 41.000000 1.000000
vt -0.000000 1.000000
vt -85.500000 -0.000000
vt -0.000000 -0.000000
vt -0.000000 1.000000
vt -85.500000 1.000000
vt -41.000000 -0.000000
vt 0.000000 1.000000
vt -41.000000 1.000000
vt 85.500000 0.000000
vt 85.500000 1.000000
vt 1.500000 3.000000
vt -0.000000 0.000000
vt 85.500000 -0.000000
vt 0.000000 41.000000
vt 1.500000 39.500000
vt 85.500000 41.000000
vt 84.000000 39.500000
vt 84.000000 28.637800
vt 1.500000 28.637800
vt 2.000000 27.930700
vt 83.500000 27.930700
vt 39.500000 -0.353553
vt 3.000000 -0.353553
vt 3.000000 -1.060660
vt 39.000000 -1.060660
vt -1.500000 1.000000
vt -84.000000 1.000000
vt -83.500000 0.500000
vt -2.000000 0.500000
vt 84.000000 3.000000
vt -3.000000 60.104099
vt -39.500000 60.104099
vt -39.000000 59.396999
vt -3.000000 59.396999
vt 83.000000 3.500000
vt 83.500000 3.000000
vt 83.500000 39.000000
vt 2.500000 3.500000
vt 2.000000 3.000000
vt 2.000000 39.000000
vt 2.500000 38.500000
vt 83.000000 38.500000
vt 2.500000 27.577200
vt 3.000000 26.870100
vt 82.500000 26.870100
vt 83.000000 27.577200
vt 3.500000 -1.414210
vt 4.000000 -2.121320
vt 38.000000 -2.121320
vt 38.500000 -1.414210
vt -83.000000 -2.121320
vt -82.500000 -2.828430
vt -3.000000 -2.828430
vt -2.500000 -2.121320
vt -38.500000 59.043400
vt -38.000000 58.336300
vt -4.000000 58.336300
vt -3.500000 59.043400
vt -38.000000 -0.000000
vt -38.000000 -1.250000
vt -4.000000 -1.250000
vt -4.000000 -0.000000
vt 3.000000 -0.000000
vt 3.000000 -1.250000
vt 82.500000 -1.250000
vt 82.500000 -0.000000
vt 4.000000 -0.000000
vt 4.000000 -1.250000
vt 38.000000 -1.250000
vt 38.000000 -0.000000
vt -82.500000 -0.000000
vt -82.500000 -1.250000
vt -3.000000 -1.250000
vt -3.000000 -0.000000
vt -2.500000 0.277350
vt -3.000000 1.178740
vt -82.500000 1.178740
vt -83.000000 0.277350
vt 38.500000 -0.277350
vt 38.000000 0.624038
vt 4.000000 0.624038
vt 3.500000 -0.277350
vt 83.000000 -23.020100
vt 82.500000 -22.118700
vt 3.000000 -22.118700
vt 2.500000 -23.020100
vt -3.500000 -47.704201
vt -4.000000 -46.802799
vt -38.000000 -46.802799
vt -38.500000 -47.704201
vn -1.000000 0.000000 0.000000
vn -1.000000 0.000000 0.000000
vn -1.000000 0.000000 0.000000
vn -1.000000 0.000000 -0.000000
vn -1.000000 0.000000 -0.000000
vn -1.000000 0.000000 -0.000000
vn -1.000000 0.000000 -0.000000
vn -1.000000 0.000000 -0.000000
vn -1.000000 0.000000 -0.000000
vn -1.000000 0.000000 -0.000000
vn -1.000000 0.000000 -0.000000
vn -1.000000 0.000000 -0.000000
vn -1.000000 0.000000 -0.000000
vn -1.000000 0.000000 -0.000000
vn -1.000000 0.000000 -0.000000
vn -1.000000 0.000000 -0.000000
vn -1.000000 0.000000 -0.000000
vn -1.000000 0.000000 -0.000000
vn -1.000000 0.000000 -0.000000
vn -1.000000 0.000000 -0.000000
vn -1.000000 0.000000 -0.000000
vn 0.000000 0.000000 1.000000
vn 0.000000 0.000000 1.000000
vn 0.000000 0.000000 1.000000
vn 0.000000 0.000000 1.000000
vn 0.000000 -1.000000 0.000000
vn 0.000000 -1.000000 0.000000
vn 0.000000 -1.000000 0.000000
vn 0.000000 -1.000000 0.000000
vn 0.000000 0.000000 -1.000000
vn 0.000000 0.000000 -1.000000
vn 0.000000 0.000000 -1.000000
vn 0.000000 0.000000 -1.000000
vn 0.000000 1.000000 0.000000
vn 0.000000 1.000000 0.000000
vn 0.000000 1.000000 0.000000
vn 0.000000 1.000000 0.000000
vn -1.000000 0.000000 -0.000000
vn -1.000000 0.000000 -0.000000
vn -1.000000 0.000000 -0.000000
vn -1.000000 0.000000 -0.000000
vn -1.000000 0.000000 -0.000000
vn -1.000000 0.000000 -0.000000
vn -1.000000 0.000000 -0.000000
vn -1.000000 0.000000 -0.000000
vn -1.000000 0.000000 -0.000000
vn -1.000000 0.000000 -0.000000
vn -1.000000 0.000000 -0.000000
vn -1.000000 0.000000 -0.000000
vn -1.000000 0.000000 -0.000000
vn -1.000000 0.000000 -0.000000
vn -1.000000 0.000000 -0.000000
vn -1.000000 0.000000 -0.000000
vn -1.000000 0.000000 -0.000000
vn -1.000000 0.000000 -0.000000
vn -1.000000 0.000000 -0.000000
vn -1.000000 0.000000 -0.000000
vn -1.000000 0.000000 -0.000000
vn -1.000000 0.000000 -0.000000
vn -1.000000 0.000000 -0.000000
vn -1.000000 0.000000 -0.000000
vn 0.000000 0.000000 -1.000000
vn 0.000000 0.000000 -1.000000
vn 0.000000 0.000000 -1.000000
vn 0.000000 0.000000 -1.000000
vn 0.000000 1.000000 0.000000
vn 0.000000 1.000000 0.000000
vn 0.000000 1.000000 0.000000
vn 0.000000 1.000000 0.000000
vn 0.000000 0.000000 1.000000
vn 0.000000 0.000000 1.000000
vn 0.000000 0.000000 1.000000
vn 0.000000 0.000000 1.000000
vn 0.000000 -1.000000 0.000000
vn 0.000000 -1.000000 0.000000
vn 0.000000 -1.000000 0.000000
vn 0.000000 -1.000000 0.000000
vn 1.000000 -0.000000 0.000000
vn 1.000000 -0.000000 0.000000
vn 1.000000 -0.000000 0.000000
vn 1.000000 -0.000000 0.000000
vn 1.000000 -0.000000 0.000000
vn 1.000000 -0.000000 0.000000
vn 1.000000 -0.000000 0.000000
vn 1.000000 -0.000000 0.000000
vn 1.000000 -0.000000 0.000000
vn 1.000000 -0.000000 0.000000
vn 1.000000 -0.000000 0.000000
vn 1.000000 -0.000000 0.000000
vn 1.000000 -0.000000 0.000000
vn 1.000000 -0.000000 0.000000
vn 1.000000 -0.000000 0.000000
vn 0.842616 -0.538516 0.000000
vn 0.842616 -0.538516 0.000000
vn 0.842616 -0.538516 0.000000
vn 0.842616 -0.538516 0.000000
vn 0.707107 0.000000 -0.707107
vn 0.707107 0.000000 -0.707107
vn 0.707107 0.000000 -0.707107
vn 0.707107 0.000000 -0.707107
vn -0.000000 1.000000 -0.000000
vn -0.000000 1.000000 -0.000000
vn -0.000000 1.000000 -0.000000
vn -0.000000 1.000000 -0.000000
vn 1.000000 -0.000000 0.000000
vn 1.000000 -0.000000 0.000000
vn 1.000000 -0.000000 0.000000
vn 1.000000 -0.000000 0.000000
vn 1.000000 -0.000000 0.000000
vn 1.000000 -0.000000 0.000000
vn 1.000000 -0.000000 0.000000
vn 1.000000 -0.000000 0.000000
vn 1.000000 -0.000000 0.000000
vn 0.707107 0.000000 0.707107
vn 0.707107 0.000000 0.707107
vn 0.707107 0.000000 0.707107
vn 0.707107 0.000000 0.707107
vn 1.000000 -0.000000 0.000000
vn 1.000000 -0.000000 0.000000
vn 1.000000 -0.000000 0.000000
vn 1.000000 -0.000000 0.000000
vn 1.000000 -0.000000 0.000000
vn 1.000000 -0.000000 0.000000
vn 1.000000 -0.000000 0.000000
vn 1.000000 -0.000000 0.000000
vn 1.000000 -0.000000 0.000000
vn 1.000000 -0.000000 0.000000
vn 1.000000 -0.000000 0.000000
vn 1.000000 -0.000000 0.000000
vn 1.000000 -0.000000 0.000000
vn 1.000000 -0.000000 0.000000
vn 1.000000 -0.000000 0.000000
vn 1.000000 -0.000000 0.000000
vn 1.000000 -0.000000 0.000000
vn 1.000000 -0.000000 0.000000
vn 1.000000 -0.000000 0.000000
vn 1.000000 -0.000000 0.000000
vn 1.000000 -0.000000 0.000000
vn 0.842616 -0.538516 0.000000
vn 0.842616 -0.538516 0.000000
vn 0.842616 -0.538516 0.000000
vn 0.842616 -0.538516 0.000000
vn 0.707107 0.000000 -0.707107
vn 0.707107 0.000000 -0.707107
vn 0.707107 0.000000 -0.707107
vn 0.707107 0.000000 -0.707107
vn 0.842616 0.538516 0.000000
vn 0.842616 0.538516 0.000000
vn 0.842616 0.538516 0.000000
vn 0.842616 0.538516 0.000000
vn 0.707107 0.000000 0.707107
vn 0.707107 0.000000 0.707107
vn 0.707107 0.000000 0.707107
vn 0.707107 0.000000 0.707107
vn 0.000000 0.000000 1.000000
vn 0.000000 0.000000 1.000000
vn 0.000000 0.000000 1.000000
vn 0.000000 0.000000 1.000000
vn 0.000000 -1.000000 0.000000
vn 0.000000 -1.000000 0.000000
vn 0.000000 -1.000000 0.000000
vn 0.000000 -1.000000 0.000000
vn 0.000000 0.000000 -1.000000
vn 0.000000 0.000000 -1.000000
vn 0.000000 0.000000 -1.000000
vn 0.000000 0.000000 -1.000000
vn 0.000000 1.000000 0.000000
vn 0.000000 1.000000 0.000000
vn 0.000000 1.000000 0.000000
vn 0.000000 1.000000 0.000000
vn -0.721874 0.692025 -0.000000
vn -0.721874 0.692025 -0.000000
vn -0.721874 0.692025 -0.000000
vn -0.721874 0.692025 -0.000000
vn -0.554700 0.000000 -0.832050
vn -0.554700 0.000000 -0.832050
vn -0.554700 0.000000 -0.832050
vn -0.554700 0.000000 -0.832050
vn -0.721874 -0.692025 0.000000
vn -0.721874 -0.692025 0.000000
vn -0.721874 -0.692025 0.000000
vn -0.721874 -0.692025 0.000000
vn -0.554700 0.000000 0.832050
vn -0.554700 0.000000 0.832050
vn -0.554700 0.000000 0.832050
vn -0.554700 0.000000 0.832050
vn -1.000000 0.000000 -0.000000
vn -1.000000 0.000000 -0.000000
vn -1.000000 0.000000 -0.000000
vn 1.000000 -0.000000 0.000000
vn 1.000000 -0.000000 0.000000
vn 1.000000 -0.000000 0.000000
s off
g baseVPTI:Mesh14Window_Casement_Wood_Triple_81_5x36_1Model
usemtl baseVPTI:FrontColor
f 1/1/1 2/2/2 3/3/3
f 2/2/4 1/1/5 4/4/6
f 4/4/7 1/1/8 5/5/9
f 6/6/10 5/5/11 1/1/12
f 6/6/13 7/7/14 5/5/15
f 8/8/16 7/7/17 6/6/18
f 7/7/19 8/8/20 3/3/21
f 8/9/22 9/10/23 10/11/24 3/12/25
f 6/13/26 11/14/27 9/15/28 8/16/29
f 1/17/30 12/18/31 11/19/32 6/20/33
f 3/21/34 10/22/35 12/23/36 1/24/37
f 10/25/38 13/26/39 12/27/40
f 10/28/41 14/29/42 13/26/43
f 14/29/44 10/30/45 9/31/46
f 9/32/47 15/33/48 14/29/49
f 15/33/50 9/34/51 16/35/52
f 16/35/53 9/36/54 11/37/55
f 16/35/56 11/38/57 13/26/58
f 12/39/59 13/26/60 11/40/61
f 16/41/62 13/42/63 17/43/64 18/44/65
f 13/45/66 14/46/67 19/47/68 17/48/69
f 14/49/70 15/33/71 20/50/72 19/51/73
f 15/33/74 16/52/75 18/53/76 20/50/77
f 21/54/78 20/55/79 18/56/80
f 20/55/81 21/54/82 19/57/83
f 22/58/84 19/57/85 21/54/86
f 19/57/87 22/58/88 17/59/89
f 17/59/90 22/58/91 23/60/92
f 23/61/93 22/62/94 24/63/95 25/64/96
f 22/65/97 21/66/98 26/67/99 24/68/100
f 21/69/101 27/70/102 28/71/103 26/72/104
f 21/54/105 18/56/106 27/73/107
f 27/73/108 18/56/109 17/59/110
f 17/59/111 23/60/112 27/73/113
f 27/74/114 23/75/115 25/76/116 28/77/117
f 29/78/118 28/79/119 25/80/120
f 30/81/121 28/79/122 29/78/123
f 30/81/124 26/82/125 28/79/126
f 26/82/127 30/81/128 24/83/129
f 31/84/130 24/83/131 30/81/132
f 24/83/133 31/84/134 25/80/135
f 25/80/136 31/84/137 32/85/138
f 31/86/139 33/87/140 34/88/141 32/89/142
f 30/90/143 35/91/144 33/92/145 31/93/146
f 29/94/147 36/95/148 35/96/149 30/97/150
f 32/98/151 34/99/152 36/100/153 29/101/154
f 34/102/155 37/103/156 38/104/157 36/105/158
f 33/106/159 39/107/160 37/108/161 34/109/162
f 35/110/163 40/111/164 39/112/165 33/113/166
f 36/114/167 38/115/168 40/116/169 35/117/170
f 7/118/171 40/119/172 38/120/173 5/121/174
f 2/122/175 39/123/176 40/124/177 7/125/178
f 4/126/179 37/127/180 39/128/181 2/129/182
f 5/130/183 38/131/184 37/132/185 4/133/186
f 7/7/187 3/3/188 2/2/189
f 25/80/190 32/85/191 29/78/192
