# This file uses centimeters as units for non-parametric coordinates.

mtllib archivero.mtl
g default
v 0.223545 0.336842 -0.297744
v 0.223545 0.336842 0.013406
v 0.210845 0.368592 0.013406
v 0.210845 0.368592 -0.297744
vt 2.750000 12.046900
vt 2.750000 13.393100
vt 15.000000 12.046900
vt 15.000000 13.393100
vn 0.928477 0.371390 0.000000
vn 0.928477 0.371390 0.000000
vn 0.928477 0.371390 0.000000
vn 0.928477 0.371391 0.000000
vn 0.928477 0.371391 0.000000
vn 0.928477 0.371391 0.000000
s off
g polySurface11 polySurface9 polySurface6 archivero:Mesh
usemtl lambert6SG
f 1/1/1 4/2/2 2/3/3
f 2/3/4 4/2/5 3/4/6
g default
v 0.223545 0.635292 -0.297744
v 0.223545 0.635292 0.013406
v 0.210845 0.667042 0.013406
v 0.210845 0.667042 -0.297744
vt 2.750000 22.956499
vt 2.750000 24.302799
vt 15.000000 22.956499
vt 15.000000 24.302799
vn 0.928477 0.371390 0.000000
vn 0.928477 0.371390 0.000000
vn 0.928477 0.371390 0.000000
vn 0.928477 0.371391 0.000000
vn 0.928477 0.371391 0.000000
vn 0.928477 0.371391 0.000000
s off
g archivero:Mesh polySurface4
usemtl lambert6SG
f 5/5/7 8/6/8 6/7/9
f 6/7/10 8/6/11 7/8/12
g default
v 0.223545 0.635293 0.013406
v 0.223545 0.635292 0.324561
v 0.210845 0.667042 0.013406
v 0.210845 0.667042 0.324561
vt 15.000000 22.956499
vt 15.000000 24.302799
vt 2.750000 22.956499
vt 2.750000 24.302799
vn 0.928473 0.371401 0.000001
vn 0.928473 0.371401 0.000001
vn 0.928473 0.371401 0.000001
vn 0.928476 0.371392 0.000000
vn 0.928476 0.371392 0.000000
vn 0.928476 0.371392 0.000000
s off
g archivero:Mesh polySurface3
usemtl lambert6SG
f 9/9/13 11/10/14 10/11/15
f 10/11/16 11/10/17 12/12/18
g default
v 0.223545 0.940092 -0.297744
v 0.223545 0.940092 0.013406
v 0.210845 0.971842 0.013406
v 0.210845 0.971842 -0.297744
vt 2.750000 34.098202
vt 2.750000 35.444500
vt 15.000000 34.098202
vt 15.000000 35.444500
vn 0.928477 0.371390 0.000000
vn 0.928477 0.371390 0.000000
vn 0.928477 0.371390 0.000000
vn 0.928477 0.371391 0.000000
vn 0.928477 0.371391 0.000000
vn 0.928477 0.371391 0.000000
s off
g archivero:Mesh polySurface5
usemtl lambert6SG
f 13/13/19 16/14/20 14/15/21
f 14/15/22 16/14/23 15/16/24
g default
v 0.223545 0.940092 0.013406
v 0.223545 0.940092 0.324561
v 0.210845 0.971842 0.013406
v 0.210845 0.971842 0.324561
vt 15.000000 34.098202
vt 15.000000 35.444500
vt 2.750000 34.098202
vt 2.750000 35.444500
vn 0.928477 0.371391 0.000000
vn 0.928477 0.371391 0.000000
vn 0.928477 0.371391 0.000000
vn 0.928476 0.371392 0.000000
vn 0.928476 0.371392 0.000000
vn 0.928476 0.371392 0.000000
s off
g archivero:Mesh polySurface1
usemtl lambert6SG
f 17/17/25 19/18/26 18/19/27
f 18/19/28 19/18/29 20/20/30
g default
v 0.223545 0.336842 0.013406
v 0.223545 0.336842 0.324561
v 0.210845 0.368592 0.013406
v 0.210845 0.368592 0.324561
vt 15.000000 12.046900
vt 15.000000 13.393100
vt 2.750000 12.046900
vt 2.750000 13.393100
vn 0.928477 0.371391 0.000000
vn 0.928477 0.371391 0.000000
vn 0.928477 0.371391 0.000000
vn 0.928476 0.371392 0.000000
vn 0.928476 0.371392 0.000000
vn 0.928476 0.371392 0.000000
s off
g archivero:Mesh polySurface2
usemtl lambert6SG
f 21/21/31 23/22/32 22/23/33
f 22/23/34 23/22/35 24/24/36
g default
v -0.220955 0.012360 0.394411
v 0.236245 0.012360 0.394411
v 0.236245 1.028360 0.394411
v -0.220955 1.028360 0.394411
v -0.220955 0.012360 0.013406
v 0.210845 0.012360 0.013406
v 0.210845 0.012360 0.369011
v 0.236245 0.012360 0.369011
v -0.220955 1.028360 0.013406
v 0.236245 1.028360 0.013406
v 0.236245 0.990260 0.369011
v 0.236245 0.990260 0.013406
v 0.223545 0.990260 0.369011
v 0.223545 0.990260 0.013406
v 0.223545 0.685460 0.013406
v 0.223545 0.971842 0.324561
v 0.223545 0.971842 0.013406
v 0.223545 0.685460 0.369011
v 0.210845 0.088560 0.369011
v 0.223545 0.088560 0.369011
v 0.223545 0.387010 0.369011
v 0.210845 0.088560 0.013406
v 0.223545 0.088560 0.013406
v 0.223545 0.368592 0.324561
v 0.223545 0.368592 0.013406
v 0.223545 0.387010 0.013406
v 0.223545 0.667042 0.324561
v 0.223545 0.667042 0.013406
v 0.223545 0.940092 0.013406
v 0.223545 0.940092 0.324561
v 0.210845 0.971842 0.324561
v 0.210845 0.971842 0.013406
v 0.223545 0.336842 0.013406
v 0.223545 0.336842 0.324561
v 0.210845 0.368592 0.324561
v 0.210845 0.368592 0.013406
v 0.223545 0.635293 0.013406
v 0.223545 0.635292 0.324561
v 0.210845 0.667042 0.324561
v 0.210845 0.667042 0.013406
vt -18.000000 0.000000
vt 0.000000 0.000000
vt -18.000000 40.000000
vt 0.000000 40.000000
vt 0.000000 18.000000
vt -15.000000 18.000000
vt -15.000000 1.000000
vt -1.000000 1.000000
vt -1.000000 0.000000
vt 0.000000 40.000000
vt -15.000000 40.000000
vt 0.000000 0.000000
vt -15.000000 0.000000
vt 0.000000 0.000000
vt 15.000000 0.000000
vt 0.000000 18.000000
vt 15.000000 18.000000
vt 15.000000 38.500000
vt 15.000000 40.000000
vt 1.000000 38.500000
vt 1.000000 0.000000
vt -1.000000 0.500000
vt -15.000000 0.500000
vt -1.000000 0.000000
vt -15.000000 0.000000
vt 15.000000 26.500000
vt 15.000000 36.524899
vt 1.000000 26.500000
vt 15.000000 36.524899
vt 2.750000 36.524899
vt 2.750000 36.524899
vt 1.000000 38.500000
vt 2.750000 37.774899
vt 15.000000 38.500000
vt 15.000000 37.774899
vt -15.000000 0.500000
vt -2.750000 0.500000
vt -15.000000 1.000000
vt -15.000000 1.000000
vt -2.750000 1.000000
vt 0.500000 37.774899
vt 0.500000 36.524899
vt 1.000000 37.774899
vt 0.000000 38.500000
vt 0.000000 0.000000
vt 0.500000 38.500000
vt 0.500000 26.500000
vt 0.500000 14.750000
vt 0.500000 3.000000
vt 1.000000 0.000000
vt 1.000000 3.000000
vt 1.000000 0.000000
vt 15.000000 0.000000
vt 15.000000 3.000000
vt -1.000000 1.000000
vt -15.000000 1.000000
vt -1.000000 0.500000
vt -15.000000 0.500000
vt 15.000000 3.000000
vt 15.000000 12.774900
vt 1.000000 3.000000
vt 15.000000 12.774900
vt 2.750000 12.774900
vt 2.750000 12.774900
vt 1.000000 14.750000
vt 2.750000 14.024900
vt 15.000000 14.750000
vt 15.000000 14.024900
vt -15.000000 0.500000
vt -2.750000 0.500000
vt -15.000000 1.000000
vt -15.000000 1.000000
vt -2.750000 1.000000
vt 0.500000 14.024900
vt 0.500000 12.774900
vt 1.000000 14.024900
vt 15.000000 24.524900
vt 15.000000 24.524900
vt 2.750000 24.524900
vt 2.750000 24.524900
vt 2.750000 25.774900
vt 15.000000 25.774900
vt -15.000000 0.500000
vt -2.750000 0.500000
vt -15.000000 1.000000
vt -15.000000 1.000000
vt -2.750000 1.000000
vt 0.500000 25.774900
vt 0.500000 24.524900
vt 1.000000 25.774900
vn 0.000000 0.000000 1.000000
vn 0.000000 0.000000 1.000000
vn 0.000000 0.000000 1.000000
vn 0.000000 0.000000 1.000000
vn 0.000000 0.000000 1.000000
vn 0.000000 0.000000 1.000000
vn 0.000000 -1.000000 0.000000
vn 0.000000 -1.000000 0.000000
vn 0.000000 -1.000000 0.000000
vn 0.000000 -1.000000 0.000000
vn 0.000000 -1.000000 0.000000
vn 0.000000 -1.000000 0.000000
vn 0.000000 -1.000000 0.000000
vn 0.000000 -1.000000 0.000000
vn 0.000000 -1.000000 0.000000
vn 0.000000 -1.000000 0.000000
vn 0.000000 -1.000000 0.000000
vn 0.000000 -1.000000 0.000000
vn -1.000000 0.000000 0.000000
vn -1.000000 0.000000 0.000000
vn -1.000000 0.000000 0.000000
vn -1.000000 0.000000 0.000000
vn -1.000000 0.000000 0.000000
vn -1.000000 0.000000 0.000000
vn 0.000000 1.000000 0.000000
vn 0.000000 1.000000 0.000000
vn 0.000000 1.000000 0.000000
vn 0.000000 1.000000 0.000000
vn 0.000000 1.000000 0.000000
vn 0.000000 1.000000 0.000000
vn 1.000000 0.000000 0.000000
vn 1.000000 0.000000 0.000000
vn 1.000000 0.000000 0.000000
vn 1.000000 0.000000 0.000000
vn 1.000000 0.000000 0.000000
vn 1.000000 0.000000 0.000000
vn 1.000000 0.000000 0.000000
vn 1.000000 0.000000 0.000000
vn 1.000000 0.000000 0.000000
vn 1.000000 0.000000 0.000000
vn 1.000000 0.000000 0.000000
vn 1.000000 0.000000 0.000000
vn 0.000000 -1.000000 0.000000
vn 0.000000 -1.000000 0.000000
vn 0.000000 -1.000000 0.000000
vn 0.000000 -1.000000 0.000000
vn 0.000000 -1.000000 0.000000
vn 0.000000 -1.000000 0.000000
vn 1.000000 0.000000 0.000000
vn 1.000000 0.000000 0.000000
vn 1.000000 0.000000 0.000000
vn 1.000000 0.000000 0.000000
vn 1.000000 0.000000 0.000000
vn 1.000000 0.000000 0.000000
vn 1.000000 0.000000 0.000000
vn 1.000000 0.000000 0.000000
vn 1.000000 0.000000 0.000000
vn 1.000000 0.000000 0.000000
vn 1.000000 0.000000 0.000000
vn 1.000000 0.000000 0.000000
vn 1.000000 0.000000 0.000000
vn 1.000000 0.000000 0.000000
vn 1.000000 0.000000 0.000000
vn 1.000000 0.000000 0.000000
vn 1.000000 0.000000 0.000000
vn 1.000000 0.000000 0.000000
vn 0.000000 -1.000000 0.000000
vn 0.000000 -1.000000 0.000000
vn 0.000000 -1.000000 0.000000
vn 0.000000 -1.000000 0.000000
vn 0.000000 -1.000000 0.000000
vn 0.000000 -1.000000 0.000000
vn 0.000000 0.000000 -1.000000
vn 0.000000 0.000000 -1.000000
vn 0.000000 0.000000 -1.000000
vn 0.000000 0.000000 -1.000000
vn 0.000000 0.000000 -1.000000
vn 0.000000 0.000000 -1.000000
vn -0.000004 0.000000 -1.000000
vn -0.000004 0.000000 -1.000000
vn -0.000004 0.000000 -1.000000
vn 0.000008 0.000000 -1.000000
vn 0.000008 0.000000 -1.000000
vn 0.000008 0.000000 -1.000000
vn 0.000000 0.000000 -1.000000
vn 0.000000 0.000000 -1.000000
vn 0.000000 0.000000 -1.000000
vn 0.000000 0.000000 -1.000000
vn 0.000000 0.000000 -1.000000
vn 0.000000 0.000000 -1.000000
vn 0.000000 0.000000 -1.000000
vn 0.000000 0.000000 -1.000000
vn 0.000000 0.000000 -1.000000
vn 1.000000 0.000000 0.000000
vn 1.000000 0.000000 0.000000
vn 1.000000 0.000000 0.000000
vn 1.000000 0.000000 0.000000
vn 1.000000 0.000000 0.000000
vn 1.000000 0.000000 0.000000
vn 0.000000 -1.000000 0.000000
vn 0.000000 -1.000000 0.000000
vn 0.000000 -1.000000 0.000000
vn 0.000000 -1.000000 0.000000
vn 0.000000 -1.000000 0.000000
vn 0.000000 -1.000000 0.000000
vn 1.000000 0.000000 0.000000
vn 1.000000 0.000000 0.000000
vn 1.000000 0.000000 0.000000
vn 1.000000 0.000000 0.000000
vn 1.000000 0.000000 0.000000
vn 1.000000 0.000000 0.000000
vn 1.000000 0.000000 0.000000
vn 1.000000 0.000000 0.000000
vn 1.000000 0.000000 0.000000
vn 1.000000 0.000000 0.000000
vn 1.000000 0.000000 0.000000
vn 1.000000 0.000000 0.000000
vn 1.000000 0.000000 0.000000
vn 1.000000 0.000000 0.000000
vn 1.000000 0.000000 0.000000
vn 1.000000 0.000000 0.000000
vn 1.000000 0.000000 0.000000
vn 1.000000 0.000000 0.000000
vn 0.000000 -1.000000 0.000000
vn 0.000000 -1.000000 0.000000
vn 0.000000 -1.000000 0.000000
vn 0.000000 -1.000000 0.000000
vn 0.000000 -1.000000 0.000000
vn 0.000000 -1.000000 0.000000
vn 0.000000 0.000000 -1.000000
vn 0.000000 0.000000 -1.000000
vn 0.000000 0.000000 -1.000000
vn 1.000000 0.000000 0.000000
vn 1.000000 0.000000 0.000000
vn 1.000000 0.000000 0.000000
vn 1.000000 0.000000 0.000000
vn 1.000000 0.000000 0.000000
vn 1.000000 0.000000 0.000000
vn 1.000000 0.000000 0.000000
vn 1.000000 0.000000 0.000000
vn 1.000000 0.000000 0.000000
vn 1.000000 0.000000 0.000000
vn 1.000000 0.000000 0.000000
vn 1.000000 0.000000 0.000000
vn 1.000000 0.000000 0.000000
vn 1.000000 0.000000 0.000000
vn 1.000000 0.000000 0.000000
vn 1.000000 0.000000 0.000000
vn 1.000000 0.000000 0.000000
vn 1.000000 0.000000 0.000000
vn 0.000000 -1.000000 0.000000
vn 0.000000 -1.000000 0.000000
vn 0.000000 -1.000000 0.000000
vn 0.000000 -1.000000 0.000000
vn 0.000000 -1.000000 0.000000
vn 0.000000 -1.000000 0.000000
vn 0.000000 0.000000 -1.000000
vn 0.000000 0.000000 -1.000000
vn 0.000000 0.000000 -1.000000
s off
g polySurface6 archivero:Mesh polySurface7
usemtl lambert5SG
f 25/25/37 26/26/38 28/27/39
f 28/27/40 26/26/41 27/28/42
f 25/29/43 29/30/44 26/26/45
f 30/31/46 31/32/47 29/30/48
f 29/30/49 31/32/50 26/26/51
f 31/32/52 32/33/53 26/26/54
f 28/34/55 33/35/56 25/36/57
f 25/36/58 33/35/59 29/37/60
f 27/38/61 34/39/62 28/40/63
f 28/40/64 34/39/65 33/41/66
f 36/42/67 34/43/68 35/44/69
f 34/43/70 27/28/71 35/44/72
f 27/28/73 26/26/74 35/44/75
f 35/44/76 26/26/77 32/45/78
f 37/46/79 38/47/80 35/48/81
f 35/48/82 38/47/83 36/49/84
f 39/50/85 53/51/86 42/52/87
f 53/53/88 54/54/89 42/52/90
f 42/52/91 54/55/92 37/56/93
f 54/55/94 40/57/95 37/56/96
f 37/56/97 40/57/98 38/58/99
f 40/57/100 41/59/101 38/58/102
f 41/60/103 40/61/104 56/62/105
f 56/63/106 40/61/107 55/64/108
f 40/65/109 54/66/110 55/67/111
f 35/68/112 32/69/113 37/70/114
f 37/70/115 32/69/116 42/71/117
f 42/71/118 32/69/119 45/72/120
f 45/72/121 32/69/122 44/73/123
f 32/69/124 31/74/125 44/73/126
f 31/74/127 43/75/128 44/73/129
f 31/76/130 30/77/131 43/75/132
f 43/75/133 30/77/134 46/78/135
f 43/79/136 46/80/137 44/81/138
f 44/81/139 46/80/140 47/82/141
f 47/83/142 57/84/143 44/85/144
f 57/86/145 58/87/146 44/85/147
f 44/85/148 58/88/149 45/89/150
f 58/88/151 48/90/152 45/89/153
f 45/89/154 48/90/155 50/91/156
f 48/90/157 49/92/158 50/91/159
f 49/93/160 48/94/161 60/95/162
f 60/96/163 48/94/164 59/97/165
f 48/98/166 58/99/167 59/100/168
f 50/91/169 61/101/170 45/89/171
f 61/102/172 62/103/173 45/89/174
f 45/89/175 62/104/176 42/52/177
f 62/104/178 51/105/179 42/52/180
f 42/52/181 51/105/182 39/50/183
f 51/105/184 52/106/185 39/50/186
f 52/107/187 51/108/188 64/109/189
f 64/110/190 51/108/191 63/111/192
f 51/112/193 62/113/194 63/114/195
g default
v -0.220955 1.028360 -0.367594
v 0.236245 1.028360 -0.367594
v 0.236245 0.012360 -0.367594
v -0.220955 0.012360 -0.367594
v -0.220955 1.028360 0.013406
v 0.236245 1.028360 0.013406
v -0.220955 0.012360 0.013406
v 0.236245 0.012360 -0.342194
v 0.210845 0.012360 -0.342194
v 0.210845 0.012360 0.013406
v 0.236245 0.990260 0.013406
v 0.236245 0.990260 -0.342194
v 0.223545 0.990260 0.013406
v 0.223545 0.990260 -0.342194
v 0.223545 0.685460 -0.342194
v 0.223545 0.971842 0.013406
v 0.223545 0.971842 -0.297744
v 0.223545 0.685460 0.013406
v 0.223545 0.387010 -0.342194
v 0.223545 0.088560 -0.342194
v 0.210845 0.088560 -0.342194
v 0.223545 0.667042 0.013406
v 0.223545 0.667042 -0.297744
v 0.223545 0.387010 0.013406
v 0.223545 0.368592 0.013406
v 0.223545 0.368592 -0.297744
v 0.223545 0.088560 0.013406
v 0.210845 0.088560 0.013406
v 0.223545 0.940092 -0.297744
v 0.210845 0.971842 -0.297744
v 0.210845 0.971842 0.013406
v 0.223545 0.940092 0.013406
v 0.223545 0.635292 -0.297744
v 0.210845 0.667042 -0.297744
v 0.210845 0.667042 0.013406
v 0.223545 0.635292 0.013406
v 0.223545 0.336842 -0.297744
v 0.210845 0.368592 -0.297744
v 0.210845 0.368592 0.013406
v 0.223545 0.336842 0.013406
vt -18.000000 40.000000
vt 0.000000 40.000000
vt -18.000000 0.000000
vt 0.000000 0.000000
vt 0.000000 18.000000
vt 15.000000 18.000000
vt 0.000000 0.000000
vt 15.000000 0.000000
vt 0.000000 0.000000
vt -15.000000 0.000000
vt 0.000000 40.000000
vt -15.000000 40.000000
vt -1.000000 0.000000
vt 0.000000 18.000000
vt -1.000000 1.000000
vt -15.000000 18.000000
vt -15.000000 1.000000
vt 1.000000 0.000000
vt 1.000000 38.500000
vt 15.000000 40.000000
vt 15.000000 38.500000
vt -1.000000 0.000000
vt -15.000000 0.000000
vt -1.000000 0.500000
vt -15.000000 0.500000
vt 15.000000 38.500000
vt 15.000000 37.774899
vt 1.000000 38.500000
vt 2.750000 37.774899
vt 1.000000 26.500000
vt 2.750000 36.524899
vt 15.000000 26.500000
vt 2.750000 36.524899
vt 15.000000 36.524899
vt 0.500000 38.500000
vt 0.500000 26.500000
vt 0.000000 38.500000
vt 0.000000 0.000000
vt 0.500000 14.750000
vt 0.500000 3.000000
vt 1.000000 0.000000
vt 1.000000 3.000000
vt 15.000000 25.774900
vt 2.750000 25.774900
vt 1.000000 14.750000
vt 2.750000 24.524900
vt 15.000000 14.750000
vt 2.750000 24.524900
vt 15.000000 24.524900
vt -15.000000 1.000000
vt -2.750000 1.000000
vt -15.000000 0.500000
vt -2.750000 1.000000
vt -2.750000 0.500000
vt 1.000000 25.774900
vt 0.500000 24.524900
vt 0.500000 25.774900
vt 15.000000 14.024900
vt 2.750000 14.024900
vt 1.000000 3.000000
vt 2.750000 12.774900
vt 15.000000 3.000000
vt 2.750000 12.774900
vt 15.000000 12.774900
vt -15.000000 1.000000
vt -2.750000 1.000000
vt -15.000000 0.500000
vt -2.750000 1.000000
vt -2.750000 0.500000
vt 1.000000 14.024900
vt 0.500000 12.774900
vt 0.500000 14.024900
vt -1.000000 0.500000
vt -15.000000 0.500000
vt -1.000000 1.000000
vt -15.000000 1.000000
vt 15.000000 3.000000
vt 1.000000 0.000000
vt 15.000000 0.000000
vt -15.000000 1.000000
vt -2.750000 1.000000
vt -15.000000 0.500000
vt -2.750000 1.000000
vt -2.750000 0.500000
vt 1.000000 37.774899
vt 0.500000 36.524899
vt 0.500000 37.774899
vn 0.000000 0.000000 -1.000000
vn 0.000000 0.000000 -1.000000
vn 0.000000 0.000000 -1.000000
vn 0.000000 0.000000 -1.000000
vn 0.000000 0.000000 -1.000000
vn 0.000000 0.000000 -1.000000
vn 0.000000 1.000000 0.000000
vn 0.000000 1.000000 0.000000
vn 0.000000 1.000000 0.000000
vn 0.000000 1.000000 0.000000
vn 0.000000 1.000000 0.000000
vn 0.000000 1.000000 0.000000
vn -1.000000 0.000000 0.000000
vn -1.000000 0.000000 0.000000
vn -1.000000 0.000000 0.000000
vn -1.000000 0.000000 0.000000
vn -1.000000 0.000000 0.000000
vn -1.000000 0.000000 0.000000
vn 0.000000 -1.000000 0.000000
vn 0.000000 -1.000000 0.000000
vn 0.000000 -1.000000 0.000000
vn 0.000000 -1.000000 0.000001
vn 0.000000 -1.000000 0.000001
vn 0.000000 -1.000000 0.000001
vn 0.000000 -1.000000 0.000000
vn 0.000000 -1.000000 0.000000
vn 0.000000 -1.000000 0.000000
vn 0.000000 -1.000000 0.000000
vn 0.000000 -1.000000 0.000000
vn 0.000000 -1.000000 0.000000
vn 1.000000 0.000000 0.000000
vn 1.000000 0.000000 0.000000
vn 1.000000 0.000000 0.000000
vn 1.000000 0.000000 0.000000
vn 1.000000 0.000000 0.000000
vn 1.000000 0.000000 0.000000
vn 1.000000 0.000000 0.000000
vn 1.000000 0.000000 0.000000
vn 1.000000 0.000000 0.000000
vn 1.000000 0.000000 0.000000
vn 1.000000 0.000000 0.000000
vn 1.000000 0.000000 0.000000
vn 0.000000 -1.000000 0.000000
vn 0.000000 -1.000000 0.000000
vn 0.000000 -1.000000 0.000000
vn 0.000000 -1.000000 0.000000
vn 0.000000 -1.000000 0.000000
vn 0.000000 -1.000000 0.000000
vn 1.000000 0.000000 0.000000
vn 1.000000 0.000000 0.000000
vn 1.000000 0.000000 0.000000
vn 1.000000 0.000000 0.000000
vn 1.000000 0.000000 0.000000
vn 1.000000 0.000000 0.000000
vn 1.000000 0.000000 0.000000
vn 1.000000 0.000000 0.000000
vn 1.000000 0.000000 0.000000
vn 1.000000 0.000000 0.000000
vn 1.000000 0.000000 0.000000
vn 1.000000 0.000000 0.000000
vn 1.000000 0.000000 0.000000
vn 1.000000 0.000000 0.000000
vn 1.000000 0.000000 0.000000
vn 1.000000 0.000000 0.000000
vn 1.000000 0.000000 0.000000
vn 1.000000 0.000000 0.000000
vn 0.000000 0.000000 1.000000
vn 0.000000 0.000000 1.000000
vn 0.000000 0.000000 1.000000
vn 0.000000 0.000000 1.000000
vn 0.000000 0.000000 1.000000
vn 0.000000 0.000000 1.000000
vn 0.000008 0.000000 1.000000
vn 0.000008 0.000000 1.000000
vn 0.000008 0.000000 1.000000
vn 0.000000 0.000000 1.000000
vn 0.000000 0.000000 1.000000
vn 0.000000 0.000000 1.000000
vn 0.000000 0.000000 1.000000
vn 0.000000 0.000000 1.000000
vn 0.000000 0.000000 1.000000
vn 0.000000 0.000000 1.000000
vn 0.000000 0.000000 1.000000
vn 0.000000 0.000000 1.000000
vn 1.000000 0.000000 0.000000
vn 1.000000 0.000000 0.000000
vn 1.000000 0.000000 0.000000
vn 1.000000 0.000000 0.000000
vn 1.000000 0.000000 0.000000
vn 1.000000 0.000000 0.000000
vn 1.000000 0.000000 0.000000
vn 1.000000 0.000000 0.000000
vn 1.000000 0.000000 0.000000
vn 1.000000 0.000000 0.000000
vn 1.000000 0.000000 0.000000
vn 1.000000 0.000000 0.000000
vn 1.000000 0.000000 0.000000
vn 1.000000 0.000000 0.000000
vn 1.000000 0.000000 0.000000
vn 1.000000 0.000000 0.000000
vn 1.000000 0.000000 0.000000
vn 1.000000 0.000000 0.000000
vn 0.000000 -1.000000 0.000000
vn 0.000000 -1.000000 0.000000
vn 0.000000 -1.000000 0.000000
vn 0.000000 -1.000000 0.000000
vn 0.000000 -1.000000 0.000000
vn 0.000000 -1.000000 0.000000
vn 0.000000 0.000000 1.000000
vn 0.000000 0.000000 1.000000
vn 0.000000 0.000000 1.000000
vn 1.000000 0.000000 0.000000
vn 1.000000 0.000000 0.000000
vn 1.000000 0.000000 0.000000
vn 1.000000 0.000000 0.000000
vn 1.000000 0.000000 0.000000
vn 1.000000 0.000000 0.000000
vn 1.000000 0.000000 0.000000
vn 1.000000 0.000000 0.000000
vn 1.000000 0.000000 0.000000
vn 1.000000 0.000000 0.000000
vn 1.000000 0.000000 0.000000
vn 1.000000 0.000000 0.000000
vn 1.000000 0.000000 0.000000
vn 1.000000 0.000000 0.000000
vn 1.000000 0.000000 0.000000
vn 1.000000 0.000000 0.000000
vn 1.000000 0.000000 0.000000
vn 1.000000 0.000000 0.000000
vn 0.000000 -1.000000 0.000000
vn 0.000000 -1.000000 0.000000
vn 0.000000 -1.000000 0.000000
vn 0.000000 -1.000000 0.000000
vn 0.000000 -1.000000 0.000000
vn 0.000000 -1.000000 0.000000
vn 0.000000 0.000000 1.000000
vn 0.000000 0.000000 1.000000
vn 0.000000 0.000000 1.000000
vn 0.000000 -1.000000 0.000000
vn 0.000000 -1.000000 0.000000
vn 0.000000 -1.000000 0.000000
vn 0.000000 -1.000000 0.000000
vn 0.000000 -1.000000 0.000000
vn 0.000000 -1.000000 0.000000
vn 1.000000 0.000000 0.000000
vn 1.000000 0.000000 0.000000
vn 1.000000 0.000000 0.000000
vn 1.000000 0.000000 0.000000
vn 1.000000 0.000000 0.000000
vn 1.000000 0.000000 0.000000
vn 0.000000 -1.000000 0.000000
vn 0.000000 -1.000000 0.000000
vn 0.000000 -1.000000 0.000000
vn 0.000000 -1.000000 0.000000
vn 0.000000 -1.000000 0.000000
vn 0.000000 -1.000000 0.000000
vn 0.000000 0.000000 1.000000
vn 0.000000 0.000000 1.000000
vn 0.000000 0.000000 1.000000
s off
g polySurface6 archivero:Mesh polySurface8
usemtl lambert5SG
f 65/115/196 66/116/197 68/117/198
f 68/117/199 66/116/200 67/118/201
f 65/119/202 69/120/203 66/121/204
f 66/121/205 69/120/206 70/122/207
f 68/123/208 71/124/209 65/125/210
f 65/125/211 71/124/212 69/126/213
f 67/118/214 72/127/215 68/128/216
f 72/127/217 73/129/218 68/128/219
f 68/128/220 73/129/221 71/130/222
f 73/129/223 74/131/224 71/130/225
f 72/132/226 67/118/227 76/133/228
f 67/118/229 66/116/230 76/133/231
f 66/116/232 70/134/233 76/133/234
f 70/134/235 75/135/236 76/133/237
f 76/136/238 75/137/239 78/138/240
f 78/138/241 75/137/242 77/139/243
f 77/140/244 80/141/245 78/142/246
f 80/141/247 81/143/248 78/142/249
f 78/142/250 81/143/251 79/144/252
f 81/143/253 93/145/254 79/144/255
f 79/144/256 93/145/257 82/146/258
f 93/147/259 96/148/260 82/146/261
f 78/149/262 79/150/263 76/151/264
f 76/151/265 79/150/266 72/152/267
f 79/150/268 83/153/269 72/152/270
f 83/153/271 84/154/272 72/152/273
f 72/152/274 84/154/275 73/155/276
f 84/154/277 85/156/278 73/155/279
f 82/146/280 86/157/281 79/144/282
f 86/157/283 87/158/284 79/144/285
f 79/144/286 87/158/287 83/159/288
f 87/158/289 97/160/290 83/159/291
f 83/159/292 97/160/293 88/161/294
f 97/162/295 100/163/296 88/161/297
f 99/164/298 98/165/299 86/166/300
f 86/166/301 98/167/302 87/168/303
f 98/169/304 97/170/305 87/171/306
f 88/161/307 89/172/308 83/159/309
f 89/172/310 90/173/311 83/159/312
f 83/159/313 90/173/314 84/174/315
f 90/173/316 101/175/317 84/174/318
f 84/174/319 101/175/320 91/176/321
f 101/177/322 104/178/323 91/176/324
f 103/179/325 102/180/326 89/181/327
f 89/181/328 102/182/329 90/183/330
f 102/184/331 101/185/332 90/186/333
f 84/187/334 91/188/335 85/189/336
f 85/189/337 91/188/338 92/190/339
f 85/156/340 92/191/341 73/192/342
f 73/192/343 92/191/344 74/193/345
f 95/194/346 94/195/347 80/196/348
f 80/196/349 94/197/350 81/198/351
f 94/199/352 93/200/353 81/201/354
