# This file uses centimeters as units for non-parametric coordinates.

mtllib muroI.mtl
g default
v 0.198750 -1.000000 1.261154
v -0.198749 -1.000000 1.261154
v 0.198750 1.000000 1.261145
v -0.198749 1.000000 1.261145
v -0.198749 -1.000000 -1.261144
v -0.198749 1.000000 -1.261153
v 0.198750 1.000000 -1.261154
v 0.198750 -1.000000 -1.261144
vt -1.557021 -1.683709
vt 0.168086 -1.683702
vt 0.168086 0.491915
vt -1.557021 0.491907
vt 1.923322 0.491908
vt 0.198215 0.491916
vt 0.198215 -1.683701
vt 1.923322 -1.683709
vt 1.952661 -1.683709
vt 2.295525 -1.683709
vt 2.295525 0.491908
vt 1.952661 0.491907
vt 2.481777 2.683709
vt 2.138913 2.683709
vt 2.138913 0.508093
vt 2.481777 0.508093
vt 1.771170 2.233207
vt 1.771170 0.508101
vt 2.114034 0.508101
vt 2.114034 2.233207
vt 1.403428 0.508101
vt 1.746292 0.508101
vt 1.746292 2.233208
vt 1.403428 2.233208
vn -0.000001 -0.000005 -1.000000
vn -0.000001 -0.000005 -1.000000
vn -0.000001 -0.000005 -1.000000
vn -0.000001 -0.000005 -1.000000
vn -1.000000 0.000000 0.000000
vn -1.000000 0.000000 0.000000
vn -1.000000 0.000000 0.000000
vn -1.000000 0.000000 0.000000
vn 0.000000 1.000000 0.000000
vn 0.000000 1.000000 0.000000
vn 0.000000 1.000000 0.000000
vn 0.000000 1.000000 0.000000
vn 1.000000 0.000000 0.000000
vn 1.000000 0.000000 0.000000
vn 1.000000 0.000000 0.000000
vn 1.000000 0.000000 0.000000
vn 0.000000 -1.000000 0.000000
vn 0.000000 -1.000000 0.000000
vn 0.000000 -1.000000 0.000000
vn 0.000000 -1.000000 0.000000
vn 0.000000 0.000005 1.000000
vn 0.000000 0.000005 1.000000
vn 0.000000 0.000005 1.000000
vn 0.000000 0.000005 1.000000
s off
g muroI:paredI
usemtl muroI:FrontColor
f 5/17/1 6/18/2 7/19/3 8/20/4
f 2/1/5 4/2/6 6/3/7 5/4/8
f 4/9/9 3/10/10 7/11/11 6/12/12
f 3/5/13 1/6/14 8/7/15 7/8/16
f 1/13/17 2/14/18 5/15/19 8/16/20
f 2/21/21 1/22/22 3/23/23 4/24/24
